<svg id="Layer_1" data-name="Layer 1" xmlns="http://www.w3.org/2000/svg" viewBox="0 0 919.68 916.73"><defs><style>.cls-1{fill:#d6e3cb;}.cls-2{fill:#a4bc9f;}.cls-3{fill:#a7bfa3;}.cls-4{fill:#a7bfa1;}.cls-5{fill:#a3bd9e;}.cls-6{fill:#a0ba9a;}.cls-7{fill:#a5bda0;}.cls-8{fill:#a3bb9e;}.cls-9{fill:#a9bea3;}.cls-10{fill:#a7bda1;}.cls-11{fill:#acbea6;}.cls-12{fill:#a6bb9e;}.cls-13{fill:#a5bc9e;}.cls-14{fill:#a8bda0;}.cls-15{fill:#a2ba9a;}.cls-16{fill:#a1b999;}.cls-17{fill:#aabea4;}.cls-18{fill:#a9bfa4;}.cls-19{fill:#aabfa3;}.cls-20{fill:#aabea3;}.cls-21{fill:#a6b99f;}.cls-22{fill:#a7bc9f;}.cls-23{fill:#abbda5;}.cls-24{fill:#abbca4;}.cls-25{fill:#e5eddd;}.cls-26{fill:#e5efdf;}.cls-27{fill:#516e57;}.cls-28{fill:#dfebd8;}.cls-29{fill:#a5bd9e;}.cls-30{fill:#e5efdd;}.cls-31{fill:#a4bc9e;}.cls-32{fill:#55725a;}.cls-33{fill:#536f59;}.cls-34{fill:#fbfdec;}.cls-35{fill:#556f58;}.cls-36{fill:#536b55;}.cls-37{fill:#546f57;}.cls-38{fill:#4d6550;}.cls-39{fill:#536d55;}.cls-40{fill:#5b735c;}.cls-41{fill:#526954;}.cls-42{fill:#4e6651;}.cls-43{fill:#4f6852;}.cls-44{fill:#4f6550;}.cls-45{fill:#a3b89c;}.cls-46{fill:#ecf3e3;}.cls-47{fill:#fdfdfd;}.cls-48{fill:#f0f6ec;}.cls-49{fill:#4a6750;}.cls-50{fill:#506e56;}.cls-51{fill:#54725a;}.cls-52{fill:#506d56;}.cls-53{fill:#516f57;}.cls-54{fill:#516954;}.cls-55{fill:#526b56;}.cls-56{fill:#546c57;}.cls-57{fill:#506953;}.cls-58{fill:#4e6551;}.cls-59{fill:#536c55;}.cls-60{fill:#4d6650;}.cls-61{fill:#9bb295;}.cls-62{fill:#fbfdee;}.cls-63{fill:#a0b899;}.cls-64{fill:#a1b79a;}.cls-65{fill:#f4ead1;}.cls-66{fill:#a5bfa1;}.cls-67{fill:#fdf8e1;}.cls-68{fill:#c9cfae;}.cls-69{fill:#fbfcf7;}.cls-70{fill:#f2ebd2;}.cls-71{fill:#fafcf4;}.cls-72{fill:#f0eed2;}.cls-73{fill:#d2d8bc;}.cls-74{fill:#eef3e8;}.cls-75{fill:#dee7d2;}.cls-76{fill:#e0ecdb;}.cls-77{fill:#d7e2cd;}.cls-78{fill:#e5edde;}.cls-79{fill:#d7e6d4;}.cls-80{fill:#d3e4d0;}.cls-81{fill:#d6e7d2;}.cls-82{fill:#d8e5d3;}.cls-83{fill:#f3efd6;}.cls-84{fill:#ded4aa;}.cls-85{fill:#f6f9e7;}.cls-86{fill:#9bb293;}.cls-87{fill:#f8faf3;}.cls-88{fill:#e8f0e0;}.cls-89{fill:#d3e0cf;}.cls-90{fill:#deead5;}.cls-91{fill:#e0ebd7;}.cls-92{fill:#deecd8;}.cls-93{fill:#d5e4d1;}.cls-94{fill:#fdfdf7;}.cls-95{fill:#f3f4df;}.cls-96{fill:#f3f8e7;}.cls-97{fill:#e1eddb;}.cls-98{fill:#a6ba9a;}.cls-99{fill:#9fb28d;}.cls-100{fill:#b8bf9a;}</style></defs><path class="cls-1" d="M708.91,864.4c-.41-1.74.47-3.72-1.16-5.5-7.66,2.81-14.17,7.87-21.17,12a323.75,323.75,0,0,1-46.4,22,373.11,373.11,0,0,1-60.41,18.24c-12.82,2.62-25.81,4.56-38.91,5.95-19.28,2.06-38.51.92-57.75,1.26-14.78.27-29.27-2.39-43.85-4.46a346.56,346.56,0,0,1-65.78-16.08,396.82,396.82,0,0,1-68.65-32.2c-4.56-2.66-8.08-7.18-13.89-7.54-4.4-.82-3.38-4.72-4-7.46-5.57-24.62-16.5-46-37-61.63-1.84-1.41-3.5-4-6-3.09s-2,4.09-2.17,6.31c-.5,6.84.46,13.64,1.15,20.44.31,3.08,1.52,6.26-1.24,8.91-11-9.86-21.76-19.78-31.9-30.6-16.13-17.2-30.32-35.76-43.58-55.12-19.64-28.69-34.59-59.78-46-92.54a363.52,363.52,0,0,1-16.4-64.13c-1.7-11.12-2.64-22.44-3.85-33.66-2-18.76-1.16-37.47-1.06-56.18.08-12.85,2.24-25.62,3.93-38.39,1.56-11.75,4.08-23.27,6.71-34.81A364.57,364.57,0,0,1,125,366.33a358.13,358.13,0,0,1,25.56-53.43c12-20.49,25.1-40.26,40.1-58.71,4-4.9,8.32-9.53,12.5-14.27,1.54-1.75,3.73-3.11,3.55-5.89,1.77-2.14,4.18-2,6.56-1.74,32.16,3,61-6.18,87.7-23.53a24.79,24.79,0,0,0,3.24-2.28c2.47-2.22,6.65-3.8,5.74-7.76-.77-3.4-4.91-3.61-7.84-4.52a120.56,120.56,0,0,0-36.61-5.82c-3.82,0-8,1.1-11.19-2.33.68-.38,1.44-1.18,2.05-1.08,8.76,1.52,14.69-3.67,21.25-8.17a392.27,392.27,0,0,1,98.29-48.67,366.3,366.3,0,0,1,65.3-15c11.48-1.61,23-2.32,34.55-3.46a249.25,249.25,0,0,1,33.2-1.08,491.6,491.6,0,0,1,50.32,4.29,376,376,0,0,1,74.31,18c34.71,12.33,67.36,28.9,97.1,50.88a13.06,13.06,0,0,0,8,2.94c1.84,0,3.75-.18,5.2,1.35-3.19,3.4-7.4,2.3-11.23,2.3a111,111,0,0,0-34.27,5.85c-9.17,3-9.72,5.87-2,11.93,18.84,14.77,40.8,22,64.16,25.47,8.87,1.31,17.8,2.74,26.83.87,2.06-.43,4.26-.37,5.75,1.65,11.88,14.12,24.13,27.92,34.66,43.13a432.57,432.57,0,0,1,37.3,64.37C878.6,370.7,889,400.8,894.76,432.36c2.81,15.25,5,30.56,6.67,46,2.08,19.57,2,39.17.84,58.59-2,34.23-8.87,67.77-19.58,100.44a415.89,415.89,0,0,1-56.41,111.17,389.48,389.48,0,0,1-51.11,58.25c-5.17,4.87-9.51,10.66-15.68,14.44-2.51-2.71-1.8-5.93-1.21-9,1.31-6.81.8-13.67.81-20.52,0-2,.52-4.58-2-5.54-2.22-.87-4.07.79-5.67,2.08-14,11.33-25.13,24.82-31.37,41.92-3.34,9.17-6.39,18.43-7.62,28.2C712.19,860.75,712.84,864.06,708.91,864.4Z" transform="translate(-40.31 -51.01)"/><path class="cls-2" d="M254.31,186.05c3.7.06,7.4.22,11.1.17a120.57,120.57,0,0,1,41.79,7.33,21.27,21.27,0,0,1,5,2.24c2.26,1.54,3.2,3.55.76,5.85-2.12,2-4,4.32-6.34,6a150.46,150.46,0,0,1-67.68,26.67c-10.95,1.53-21.5.39-32.23-.27-7-1.24-13.87-3.19-21.06-3.52-3.82-.17-6.4,1.21-8.79,4.14a447.17,447.17,0,0,0-51.33,79C106,351.77,93.4,392.2,84.91,434A116.57,116.57,0,0,0,83,448.94c-.28,4-1,7.53-5.4,8.62C73,458.71,70.79,455.17,69,452a174.63,174.63,0,0,1-16.32-42.81c-6.52-26.79-2.22-52.4,7.9-77.45a27.54,27.54,0,0,1,2.64-4.86c3.47-5.27,6-5.47,9.12.24a86.41,86.41,0,0,1,10.45,34.59c.5,6.53.08,13.13.08,20.06,2.86-1.19,2.84-3.49,3.41-5.39A401.26,401.26,0,0,1,107.77,321c2.15-4.56,2.24-9,1.33-13.87-2.7-14.25-5.46-28.47-5.63-43.09-.27-22,5.76-42.25,15.75-61.52a156,156,0,0,1,15.38-24,47.85,47.85,0,0,1,5.34-5.86c3.47-3.15,5-2.78,7,1.65,2.91,6.64,3.68,13.78,4.08,20.88a151,151,0,0,1-5.13,49.42c-1.26,4.51-2.48,9-4,14.64,3.42-3,4.87-6.08,6.87-8.73,6.55-8.63,12.87-17.45,20.22-25.44a15.62,15.62,0,0,0,4.43-12.21A101.85,101.85,0,0,1,179.62,170q12.18-31.77,42.51-47.14c6.63-3.34,8.57-2.2,8.2,5.47a109.85,109.85,0,0,1-8.09,37.73c-.81,1.93-1.71,3.81-3.08,6.87,6.16-2.93,10-7,14.33-10.42A403,403,0,0,1,278,132.1,24.31,24.31,0,0,0,288.75,119a158.45,158.45,0,0,1,11.41-24.37C311.44,75.08,327.8,61.47,348.54,53c2.51-1,5.63-3.34,8.11-.79,2.16,2.23.86,5.51.32,8.34C354.29,74.47,346.92,86,338.42,96.93c-1.12,1.44-2.81,2.46-3.39,4.95,5-.25,9.17-2.43,13.41-4.1a438.25,438.25,0,0,1,52.83-16.7,23.82,23.82,0,0,1,2.28-.69c4.17-.69,7.26,1,8.13,4.39s-1.08,6.72-5.09,7.68c-5.91,1.41-11.72,3.12-17.58,4.69-47.54,12.72-90.78,34.36-130.94,62.54-13.67,9.59-26.24,20.5-38.91,31.31a24.41,24.41,0,0,0-5.12,5.13A121,121,0,0,1,254.31,186.05Z" transform="translate(-40.31 -51.01)"/><path class="cls-2" d="M793.18,234.14c-4.31-1-8.21,1.48-12.48,1.38-30.44-.66-58.62-8.61-83.85-26a51.44,51.44,0,0,1-8-7.59c-2.66-2.85-2.37-5.07,1.17-6.81a80.33,80.33,0,0,1,11-4.09c14-4.41,28.38-5.17,42.89-5,13.86.5,27,4.11,40.74,9.94-1-3.23-2.9-4.56-4.45-6a426.5,426.5,0,0,0-183.8-97.19c-6.35-1.52-8.66-4.25-7.66-8,1.19-4.46,4.14-5.54,11-3.93,19.58,4.6,38.4,11.55,57.25,18.43a23.32,23.32,0,0,0,8.38,1.69c-1.73-2.35-3.49-4.67-5.2-7-6.52-9-12.66-18.26-15.36-29.3-.12-.51-.4-1-.49-1.51-.65-3.86-2.47-8.63.64-11.24s7,.69,10.3,2.13c26.81,11.63,44.2,32.26,54.61,58.87,4,10.35,9.65,18,19.71,23.25,15.74,8.24,29.22,19.94,43.26,30.74a58.6,58.6,0,0,0,8.34,5.65A157.23,157.23,0,0,1,771.55,140a72,72,0,0,1-.65-15c.17-4.63,1.78-5.48,6.15-3.18,20.88,11.05,36.3,27.05,44.62,49.48a100.88,100.88,0,0,1,6.13,42,14.5,14.5,0,0,0,4,11.44c9.81,11,18.28,23.08,27.85,34.51-1.88-6.52-4-13-5.59-19.58-4.78-20.3-5.88-40.71-1.06-61.2a31.62,31.62,0,0,1,.68-3.1c2-6,4.17-6.51,8.75-1.56,5.59,6,10.11,12.93,14.43,19.88,9.14,14.7,15.94,30.42,18.53,47.67,2.2,14.73,1.83,29.54.23,44.27-.83,7.58-2.72,15-3.83,22.58a21,21,0,0,0,1.18,11.67c8.45,19.66,16.63,39.43,22.7,60a34.3,34.3,0,0,0,2.35,4.65c-1.72-18.39,1.45-34.73,7.12-50.68,1.24-3.48,2.76-6.87,5.6-9.47,2.26-2.09,4.42-1.88,6,.53a47.13,47.13,0,0,1,4,7.73,124.87,124.87,0,0,1,9.52,61.25,148.27,148.27,0,0,1-19,59.17c-1.64,2.89-3.59,5.54-7.45,4.49-3.39-.92-5-3.4-5.45-7a410.21,410.21,0,0,0-10.94-54.24,434.06,434.06,0,0,0-54-121.15,450.45,450.45,0,0,0-29.79-41.07c-2.92-3.57-5.7-4.83-10.19-3.79C806.72,231.93,799.93,232.91,793.18,234.14Z" transform="translate(-40.31 -51.01)"/><path class="cls-3" d="M241.7,821.52c.25-6.85-1.38-13.56-2-20.32-.48-5.35.39-10.38.55-15.54.12-3.87,1.8-4.86,5.09-2.6,5.39,3.7,10.8,7.61,15.31,12.29,16.16,16.76,25.61,36.92,28.87,60a4.39,4.39,0,0,0,1.4,2.73c.53,6.58,1.24,13.15,1.53,19.74.15,3.54,2.32,5,4.94,6.5a396.57,396.57,0,0,0,49.76,24.51c7.85,3.13,15.68,6.34,23.58,9.36,2.85,1.09,5.75,2.17,5.76,5.64s-2.71,4.89-5.48,6.1a113.1,113.1,0,0,1-36,8.88c-13.17,1.06-26.44,1.09-39.31-2.93a65.46,65.46,0,0,1-19.08-9.51c-4.5-3.28-4.28-5.48,1-7.8,9-4,18.63-5.81,28.44-6.41,4.46-.27,9,0,13.45,0,0-2.44-1.9-2.56-3.17-3.2a440.61,440.61,0,0,1-79.92-51.3,18.87,18.87,0,0,0-13-4.39c-33.16.06-62.82-10.39-88.9-30.71a90.11,90.11,0,0,1-22.88-26.12c-2.93-5.08-2.12-6.56,3.82-6.57,17.22,0,33.35,4.87,49,11.46,8,3.35,15.59,7.45,23.37,11.47-5-6.69-11-12.44-16.3-18.84-5-6.12-10.22-12.17-14.63-18.73-2.93-4.36-6.75-6.37-11.45-7.69A144.62,144.62,0,0,1,99.87,746c-25.46-18.22-40.6-43.21-48.33-73.11a18.39,18.39,0,0,1-.42-3.13c-.26-3.37,1.33-4.27,4.37-3.24a90.87,90.87,0,0,1,18,8.3c16.07,9.71,28.81,23.13,41.18,37,.88,1,1.66,2.05,2.56,3a11.31,11.31,0,0,0,2.25,1.14c-4-8.8-7.69-16.86-11.35-24.92A434.69,434.69,0,0,1,74.53,580.75c-.73-4.43-1.12-8.89-1.85-13.32a6.07,6.07,0,0,1,5-6.87c3.12-.68,5.94,1.22,6.69,5.08,2.25,11.65,3.81,23.41,6.45,35,11.8,51.79,32.29,99.85,60.77,144.68,19.85,31.26,43.9,58.88,70.76,84.15,12.09,11.37,24.82,22,39.63,30.67-3.48-6.25-7.07-12.43-10.4-18.76C248.16,834.84,245,828.15,241.7,821.52Z" transform="translate(-40.31 -51.01)"/><path class="cls-4" d="M708.91,864.4c2.87-4.14,1.78-9.14,2.73-13.68,5.12-24.56,16.34-45.42,35.45-61.84a49.85,49.85,0,0,1,8.47-5.74c3.15-1.75,5.37-.78,5.49,2.72.3,8.41,1.06,16.91-.45,25.25-.61,3.4-.78,6.77-1.11,10.17-4.3,5.49-5.81,12.38-9.22,18.35C746,847.13,741.59,854.55,737,862c7.94-3.69,14.65-9.08,21.14-14.56,31-26.18,59.4-54.91,82.33-88.61,24.2-35.57,44.26-73.27,57.67-114.27,7.81-23.84,14.13-48.07,17.42-73a39.21,39.21,0,0,1,1.13-4.61c1.21-4.68,3.38-6.86,6.46-6.51,3.54.39,5.39,3.28,4.95,8.49-.4,4.73-1.06,9.44-1.87,14.11a445.77,445.77,0,0,1-27.27,94.91c-3.45,8.29-7.48,16.34-11.24,24.5-1.65,3.59-3.64,7-4,11.08l-.31.26.22-.34c6.17-4.23,10.84-10,15.82-15.44a120.8,120.8,0,0,1,40.2-29c3-1.35,6.65-4.23,9.5-2.08s.05,6.06-.64,8.87A120.94,120.94,0,0,1,920,729.05c-15.85,17.48-35.08,29.78-57.73,36.11-10.24,2.86-17.53,7.91-23.62,16.78-7.44,10.84-16.77,20.38-26.34,31.72,6.68-3.49,12.09-6.3,17.49-9.15a132.9,132.9,0,0,1,49.83-14.62c3.47-.34,8.38-2,10.37,1.48s-1.81,6.74-3.85,9.66c-14.43,20.68-34.4,34-57.67,42.77-16.94,6.37-34.47,10-52.68,9.5-3.85-.11-7.3.49-10.3,3.15-16.7,14.81-35.73,26.29-54.6,38-9.43,5.86-19.41,10.71-30.16,16.65,3.8,1.28,6.81.78,9.7.81a91.54,91.54,0,0,1,29.49,5.23c3,1.05,7.69,1.26,7.72,5.55,0,3.9-4.28,4.95-7.15,6.68a67.13,67.13,0,0,1-28.42,9.28c-19.67,1.85-39.07.09-57.77-6.9-1.73-.64-3.4-1.46-5.07-2.26-2.5-1.2-4.47-2.88-4.6-5.91-.14-3.44,2.54-4.29,5-5.28,12-4.82,24.11-9.45,36-14.51,11.44-4.85,22.32-10.9,33.44-16.45,6.53-3.26,9-8.33,9.5-15C708.77,869.69,708.81,867,708.91,864.4Z" transform="translate(-40.31 -51.01)"/><path class="cls-5" d="M515.28,952.71c0,10-5.19,15.15-15.08,15-9.35-.11-15.54-6.25-15.43-15.3.11-8.69,7-15.19,15.94-15C509.11,937.56,515.3,944.06,515.28,952.71Z" transform="translate(-40.31 -51.01)"/><path class="cls-6" d="M515.33,67.48c0,8.51-6.37,15.36-14.55,15.6s-15.81-6.93-16-15.24,7.2-16.43,15.21-16C508.21,52.22,515.71,57.84,515.33,67.48Z" transform="translate(-40.31 -51.01)"/><path class="cls-7" d="M70.44,506.44c1,7.9-6.73,14.11-14.88,13.63C47.08,519.56,40,513,40.32,505c.26-7.54,8.29-15.28,15.72-15.17C64.43,490,70.68,497.18,70.44,506.44Z" transform="translate(-40.31 -51.01)"/><path class="cls-8" d="M960,505.63c-.06,9-5.9,14.53-15.18,14.35-8.74-.16-15.25-6.6-15.08-14.9.15-7.7,8-15.35,15.49-15.1C953.09,490.25,960.05,497.62,960,505.63Z" transform="translate(-40.31 -51.01)"/><path class="cls-9" d="M248,886c-.13,6.29-4.06,9.39-10.22,9.66-4.58.21-8.57-4.49-8.75-9.54-.19-5.36,4-10.23,8.82-10.35S248,880.88,248,886Z" transform="translate(-40.31 -51.01)"/><path class="cls-10" d="M762.69,875.72c4.47,0,9.36,5.13,9.46,9.91.1,4.94-5.21,10.24-10.13,10.11s-8.86-5-8.68-10.31S757.7,875.71,762.69,875.72Z" transform="translate(-40.31 -51.01)"/><path class="cls-11" d="M67.73,648.35a10,10,0,0,1-9.94-9.29,9.71,9.71,0,0,1,10.1-9.82c5.29.11,8.54,3.55,8.65,9.15C76.65,644.17,73,648.35,67.73,648.35Z" transform="translate(-40.31 -51.01)"/><path class="cls-12" d="M260.62,124.37c-4.89.07-9.4-4.64-9.26-9.69a10,10,0,0,1,9.14-9.18c4.92-.22,9.62,4.35,9.66,9.39A9.63,9.63,0,0,1,260.62,124.37Z" transform="translate(-40.31 -51.01)"/><path class="cls-13" d="M740,124.39a9.34,9.34,0,0,1-9-9.87,9.73,9.73,0,0,1,9.92-9.07c4.37.29,9.24,6,8.92,10.51S744.79,124.48,740,124.39Z" transform="translate(-40.31 -51.01)"/><path class="cls-14" d="M924.61,638.63c.12-6,3.57-9.43,9.26-9.28,5,.13,8.59,4.06,8.59,9.31,0,5.57-4,9.79-9.15,9.74C927.66,648.33,924.48,644.77,924.61,638.63Z" transform="translate(-40.31 -51.01)"/><path class="cls-15" d="M86.63,310.17a9.52,9.52,0,0,1-9.51-9.58c.07-4.72,5.35-9.54,10.09-9.23s8.47,4.81,8.45,9.84A9,9,0,0,1,86.63,310.17Z" transform="translate(-40.31 -51.01)"/><path class="cls-16" d="M923.49,301.12c0,5.52-3.21,8.91-8.65,9.06a9.09,9.09,0,0,1-9.19-9.57c.15-5.31,4.09-9.57,8.64-9.35A9.65,9.65,0,0,1,923.49,301.12Z" transform="translate(-40.31 -51.01)"/><path class="cls-17" d="M550.77,78.27a8.38,8.38,0,0,1-8.82-8.2,8.88,8.88,0,0,1,8.24-9c4.25-.3,8.79,4,8.94,8.37A8.79,8.79,0,0,1,550.77,78.27Z" transform="translate(-40.31 -51.01)"/><path class="cls-18" d="M450.89,61.1c4,.11,8.16,4.24,8.24,8.25.09,4.51-4,8.82-8.42,8.87s-8.85-4.16-8.66-8.5S446.68,61,450.89,61.1Z" transform="translate(-40.31 -51.01)"/><path class="cls-19" d="M550.73,956.55c-4.29,0-8.27-3.75-8.41-7.85-.16-4.77,4.39-9.58,8.83-9.32,4.08.23,8,4.81,8,9.43C559.17,952.82,555.07,956.59,550.73,956.55Z" transform="translate(-40.31 -51.01)"/><path class="cls-20" d="M450.52,956.57c-4.66-.09-8.64-4.25-8.33-8.72s4.63-8.79,8.81-8.52,8.1,4.93,7.89,9.43A8.35,8.35,0,0,1,450.52,956.57Z" transform="translate(-40.31 -51.01)"/><path class="cls-21" d="M54.68,542.2c4,.21,7.64,4.41,7.57,8.62s-3.18,7.21-7.66,7.1c-4.86-.12-8.66-4.14-8.2-8.66C46.75,545.74,51.13,542,54.68,542.2Z" transform="translate(-40.31 -51.01)"/><path class="cls-22" d="M939,550.08a7.53,7.53,0,0,1,7.1-7.79c4.22-.21,8.8,4.26,8.62,8.41-.15,3.46-4.2,7.12-8,7.23C942.12,558.06,939,554.84,939,550.08Z" transform="translate(-40.31 -51.01)"/><path class="cls-23" d="M954.92,464.28c-.07,3.63-4.07,7.67-7.67,7.74-3.92.07-8.14-4.24-8-8.19a8.15,8.15,0,0,1,7.61-7.66C950.84,456,955,460.22,954.92,464.28Z" transform="translate(-40.31 -51.01)"/><path class="cls-24" d="M60.84,464c0,4.62-2.89,8-6.84,8.07-4.23.05-7.81-3.77-7.76-8.28a7.65,7.65,0,0,1,7.59-7.5C58,456.07,60.85,459.19,60.84,464Z" transform="translate(-40.31 -51.01)"/><path class="cls-25" d="M714.78,773.6a5.31,5.31,0,0,0,1.31-.79c1.17-1.28,1.12-4.8,4.25-2.36,2.24,1.75,3.68,3.89,1.63,6.7-1.28,1.75-3,3.24-5.26,3-13.28-1.66-27.05-.34-39.61-6.41,1.4-1.7,2.5-3.67,1.56-5.82-3.26-7.5-6-15.28-10.08-22.37-2.21-3.82-5.74-3.2-7.39.39-3.57,7.77-6.33,15.89-9.84,24.28,4.11-.14,5-3.51,7.64-4.09a23.61,23.61,0,0,1,12.7.2c1.67,1,2.76,2.26,2.22,4.37-7.86,0-12.72,6.37-19.26,9.2-1.56.68-3.31,2.37-2.36,4.41,1.66,3.55-1.84,5.1-2.52,7.69a4.43,4.43,0,0,1-2,.16c-2.24-.37-4.52-.91-5.94,1.67-3.29,7.23-5.93,14.74-9.57,21.8-1.18,2.28-1.58,5.18-4.74,5.87-1,1.23-1.2,2.56.56,3a52.13,52.13,0,0,0,7,.68c-3.58,4.29-8.38,3.67-12.25,5.12-1.45.55-3.27.22-4.62.89-10.16,5-20.68,1.6-31,1.36-5-.11-9.28-2.26-10.27-8-.28-1.64-.84-3.88-2.3-3.77-6.55.45-7.17-4.5-8.64-8.77-2.11-2-2.3-4.58,0-6s3.77,1.08,5.1,2.63c3.61,4.2,6.45,9.06,10.9,12.52,1.58,1,3,1.49,3.56-1-1.44-8.34-1.16-16.78-2.08-25.21-1.74,3-.95,6.4-1.48,9.56-.83,4.95-3.25,5.66-7,2.69-3.37-2.64-5.42-6.44-8.21-9.6-1.21-1.37-2.5-3.14-4.56-2.47s-2,2.89-2.11,4.71c-.32,6.59.31,13.19-.42,19.77a7,7,0,0,1-1.64,3.54l-3.1-1.55c-5.56-2.42-6.2-8.14-8.41-12.74-1.71-3.56-3.25-7.21-4.8-10.84-.85-2-2-3.86-4.43-4s-3.59,1.78-4.57,3.72c-1.27,2.52-1.87,5.63-5.29,6.38-3.24,1.07-6.54,2-10,1.19a4.68,4.68,0,0,0-3.64.72c-6,3.34-7.07,2.78-8.42-3.87a13.72,13.72,0,0,0-1.25-2.81c-5.7-4-11.61-7-19-6-4.13.58-6.23,2.27-6.15,6.53.13,6.85-.34,13.71.29,20.53.85,1.88,1.85,2.32,3.12.33,1.06-2.39.42-6,4.43-6.26,3.24,1.76,1.11,10.48,8.65,6.64a2.51,2.51,0,0,1,2,2.35,4.09,4.09,0,0,0,4.34,1.28c3.1-.9,5.82-1.44,8.35,1.44,1,1.14,2.79,1.19,4.31,0a5.1,5.1,0,0,1,2.82-1.23c2.19,0,5.64-1.28,6.14,1.47.56,3-2.82,2.76-5.11,3.14-6.23,1-11.55,4.9-17.64,6.22-10.37,2.26-20.77,6-31.41.5-3.49-1.81-7.5-2.2-11.54-2-7.1.29-14.2.23-21.16-1.61-2.32-.62-4.78-1.07-5.62-3.7-.48-1.53-1.86-3.73,1.36-4.14s3.27-2.84,3.27-5.29c0-7.91.09-15.83,0-23.73-.07-5.45-.19-5.45-6.55-5.75-.3,2.13.81,4.07.76,6.2-.14,5.37-2.07,9.26-8,9.84-5.08.49-9.6-.18-10.68-6.46a5.9,5.9,0,0,0-2.32-4c-1.8,5-.8,9.63-1.16,14.11-.33,4.06,1.05,8.5-2.53,11.88h-2.59c-4.82-1.42-5.24-6.22-7.37-9.68-1.25-2-1.82-4.4-2.95-6.47-2.17-4-1.68-10.46-7.37-11.2-5.29-.69-5.21,5.81-8.09,8.6a4.59,4.59,0,0,1-2,1.27c-4.63-5.21-4.63-5.21-10.77-7.91-11.25-5.85-14.29-5.45-24,3.17-5.83,1.84-8.95.32-7.4-4.09,2.92-8.29-2.11-13.39-6-19.12a14.75,14.75,0,0,0-2.24-2.15c1.56-2.07,3.48-3.74,4.6-6.3,2.54-5.82,6.21-6.23,10.78-1.59,1.82,1.84,2.94,4.45,6.88,5.25-3.37-6-1.82-11.28.32-16.89,1.83-4.81-.72-8.7-5.7-10.58a21.1,21.1,0,0,0-7-1.11c-8.12-.22-9,.76-9.42,8.79-.3,5.37,1.72,11.12-2.1,16-3.12-1.16-5.23-3.08-5-6.74a41.61,41.61,0,0,0-12.43-20.52c-1.7-2.07-4.48-.93-7.06-2,3.08-1.49,7.75-1,6.56-5.6-1.08-4.21-4.61-3.39-7.8-2.32-5.79,2-11-.57-15.89-2.86-5.46-2.57-10.59-5.65-16.8-6.25a11.19,11.19,0,0,1-5-2.28c-4.33-3.1-4.31-6.88-.08-10.14,1.45-1.12,3-2.12,4.52-3.17,3.17.44,5.42,3.08,8.57,3.55a8,8,0,0,0,8-1c5.08-4.2,4.54-10.49,5.82-16,3.13-13.42,3.75-14.07,17.28-14.09,5.81,0,11.63.08,17.44,0,6.28-.08,9.8,3,11.31,8.9,1,3.84,1.71,7.74,2.74,11.56,2.42,8.93,15.85,13.38,23.25,7.79,3.55-2.67,2.61-6,1.33-9.29-7.13-18.23-11.95-37.21-18.39-55.66-3.83-11-6.16-22.44-10.79-33.13s-10-13.8-21.68-13.16c-6.07.33-9.54,3-11.25,9-7.53,26.69-16.45,53-25.12,79.28-1.38,4.19-2.28,8.82-6.84,11.11-.77-.63-2.13-1.21-2.2-1.91-.37-3.56-3-3.83-5.6-4.38-2.21-2.29-1.08-5-.88-7.54,1-12.89-2.88-23.42-14.44-30.4a81.14,81.14,0,0,0-11.91-6.3,142.78,142.78,0,0,1-19.23-9.45c-7.53-4.39-10.65-11-9.24-18.57,1.16-6.21,6.19-10.75,13.26-12s15.09,2.67,18.89,9.12c.4.68.7,1.42,1.06,2.13,3.47,6.83,7.65,8.75,13,6s6.71-9,3.3-15.11c-3.2-5.78-8.58-8.43-14.57-10.16a75.06,75.06,0,0,0-24.37-2.52,15.77,15.77,0,0,0-5.66.82c-3.7.62-7.05,3.32-11.1,1.85-2.9-1.25-5.81-2.49-8.7-3.77a2.52,2.52,0,0,1-1.71-2.42c.08-1.22,1.14-1.65,2.26-1.7,1.32-.07,2.64-.1,4-.09a70.51,70.51,0,0,0,21.29-3.42c3-.92,5.18-2.79,4.75-6.34-.39-3.13-2.27-3.84-5-1.88-.84.6-1.47,1.61-2.66,1.27-1.7-.48-1.68-2.13-1.4-3.26,1-4,1-7.17-2.87-10.27-2.82-2.24-.65-7.8,2.92-9.45,4.12-1.91,5.5-4.17,4.38-7.72-.71-2.25-2.06-3.89-4.68-2.23-1.58,1-3,2.38-4.91.75-2.32-2-4.86-4.77-4-7.32,2.73-8.45-.77-16.11-2.13-24a24.66,24.66,0,0,1,1.44-14.53c.72-1.66,1.9-3.2,1.06-5.23-3.22-7.81-.27-15.4,1.36-22.85,1-4.52,1.39-8.09-2.17-11.57-2-1.95-2.32-4.22,1.12-5.41,3.72-1.29,4.89-4,5.4-7.86.73-5.58,2.53-6.12,7.74-3.32a53.29,53.29,0,0,0,3.92,3.89c1.29,1.36,2.33,4.2,4.91,1.57,1.88-1.93,3.88-3.88,1.26-6.72-1.66-1.81-2.8-3.84-2.15-6.44.52-1.21,1.11-2.4,1.53-3.65,2.74-8.16,2.39-9.12-5-14.12-4.93-3.33-6.57-8.53-4.3-13.68.32-.72.54-1.77,1.1-2,7.88-3.68,8-12.65,12.57-18.61,2.51-3.26,3.24-7.56,8.76-7.31,1.84.08,2.85-2.09,2.58-4.24-1.54-12.5,4.78-23.44,7.08-35.17.47-2.38,2.74-2.83,5.07-2.87,8.31-.14,9-.87,8.76-8.87,0-1.54-.26-3.07-.41-4.74,3-.2,4.54,3.1,7.37,2.55,1.42,3.37-.69,6.14-1.62,9.09Q233.62,430.86,304,506.79c8.15,8.81,17.94,15.56,27.1,23.13,1.69,2.52,1.82,5.49,2.45,8.32,2.14,9.65,7.69,14.5,17.59,15.36,3.69.32,7.41.18,11.11.18,119.38,0,238.77-.23,358.15.23,21.35.08,32.63-6.53,37.3-28.12a19.47,19.47,0,0,1,1-3c.73-2,1.9-3.9,1.88-6.15a26.06,26.06,0,0,1,2.13-9.32,38.18,38.18,0,0,0,1.84-5.3c3.1-5.74,9.85-8.31,12.51-14.43,1.49-2.13,1-4.38.42-6.64a6.83,6.83,0,0,1,.18-3.08c3.42-7.84-4.4-3.41-6.15-5.6-2.54-.7-5.12-1.28-7.32-2.85-2.44-2.9-3-6.65-4.37-10-4-9.75-10.74-16.58-20.67-20.2-3.58-1-7.38-1.31-10.61-3.38-3.28-3.19-2.8-7.35-3-11.34.21-4,.29-8-1-11.88-1.06-6.37-.52-12.79-.65-19.18.12-1.78.17-3.55.13-5.33-.14-5.81,2.63-10.09,7.36-13.06,13.42-8.44,17.71-21.31,18.16-36.26.15-4.84-1.44-10,2.07-14.41.48-2.22-.76-4.72,1.05-6.77,2.69,1.08,2,3.43,2.17,5.44q.83,12,1.59,24a5.58,5.58,0,0,1,0,1.58c-.82,3.62,4.09,4.36,3.87,7.19s-4.53,3.45-5.18,6.55c-.7,3.31.47,6.66,3.58,6.82s3.92,1.53,4.76,3.89c.69,2,1.61,4,3.69,5,3.62,1.64,3.29,3.94,1.84,7.08-4,8.56-3.47,10.48,5.12,14.58,6.62,3.15,9.53,8,9.3,15-.11,3.27.9,5.77,4.12,6.86,5.14,1.73,6.1,6.12,6.95,10.57a50.48,50.48,0,0,1,.77,6.26c.92,14.18,7.62,27.07,9.16,41.15.41,3.81,2.24,7.45,3.21,11.26,1.4,5.49.42,10.46-.64,15.49-1,4.72-2.13,9.24-.25,13.94.92,2.32-.19,4.08-1.78,5.66-3.21,3.2-3.74,7.18-4.2,11.55-.66,6.21-.7,12.59-2.93,18.57-.1.25-.32.51-.29.73,1,8.06-1,15.49-4.08,22.88-1.14,2.77,1.25,3.48,3.72,3.36,2.18-.11,3.3-2.79,6.07-2.17,1.51,3.4.68,5.81-3.11,7.13-2.3.81-3.12,2.79-1.19,4.14,6.81,4.73,5.28,11.69,4.94,18.07a16,16,0,0,0,1.79,9.33c2.59,5,3.72,11-1.15,16-3.4-1.41-3.72-4.8-4.8-7.64-2.71-7-4.49-14.43-7.6-21.35-2.56-5.7-6.21-10.22-12.35-12.28-4.43-1.46-8.83-1.78-13.18.31a12.37,12.37,0,0,0-6.71,8.3c-8.32,30.83-19,60.93-28.9,91.26-1.68,5.12-4.85,10.72,2.56,14.28,2.88,1.32,5.81,2,8.86.55a10.55,10.55,0,0,0,5-5.92,15.67,15.67,0,0,0,.64-5.4c.82-5.18-.36-11.13,5.47-14.4a5.65,5.65,0,0,1,1.92,5c-.17,2.75.34,4.56,3,5.56a6.54,6.54,0,0,1,3.92,4.73c2,7.07,4.13,7.22-3.4,11.44-4.08,2.29-6.35,6.21-9.68,9.15-3,2.67-6.06,4-10,3.81a44.85,44.85,0,0,0-5.56,0c-6.52.43-9.5,2.81-10.59,9.29-.58,3.4-2.88,5.58-4.47,8.24-.82,1.37-2.4.17-3.63-.05-4.85,3.15-4.09,8.12-4.3,12.83-.09,2.31.16,5.24-2.61,6.08-2.6.78-4.33-1.48-5.89-3.24-2.63-3-4.77-6.33-7.33-9.36-1.19-1.4-2.5-3.19-4.56-2.46-1.66.59-1.65,2.56-1.68,4.14-.1,5.82-.15,11.63,0,17.44,0,1.44-.15,3.76,2,3.48,1.78-.24,1.32-2.56,1.57-4.07.34-3.14-.45-6.55,2.25-9.1,4.41-.67,5.78,3.06,7.65,5.65C705.64,766.7,709.43,771,714.78,773.6Z" transform="translate(-40.31 -51.01)"/><path class="cls-26" d="M508.65,227.56c-.14,3.65.94,6.28,5.2,6.34.79,0,1.84-.18,2.33.24,5.71,4.82,12.48,2.44,18.83,3,9.09.81,18.28-.85,27.32,1.37a10.1,10.1,0,0,0,6.91-.94c5.62-2.75,11.57-1.66,14.23,3.48,4.49,8.73,12,12.43,20.89,13.7,6.88,1,13,4.56,20.38,4.37,3.77-.1,8.84,1.68,10.45,7.06s.53,8.22-4.72,10.53c-.94.42-1.83,1-2.74,1.45-2.68,2.92-6.3,2.7-9.79,2.93-2.8-1.55-5-2-4.19,2.52-10,11.95-17.86,24.86-19.76,40.8-1.87,15.71-.61,31.45,11.88,41.76C620,377.82,622,391.81,620.35,407.92c-.62,6.31-1.64,12.57-1.67,18.95,0,2.85-.29,6.05-4.34,6.42-3.11-.56-4.94-2.91-6.84-5.08-21.54-24.62-47.72-41.54-80.15-47.83-6.75-1.31-9.47-4.26-8.3-11.39,1.64-10-2.82-17.55-11.4-22.49-7.65-4.41-15.64-3.42-22.52,1.32-7.93,5.47-11.91,13.47-9.8,23.37,1.16,5.44-.92,8-6,8.95a134,134,0,0,0-66.09,32.38c-3.58,3.18-7.37,4-11.31.41-22-19.95-35.86-44.09-38-74.23,0-7.73,0-15.46-.08-23.18,0-4.56-.37-9.21,2.95-13,2.06-1.45,3.67-.31,4.64,1.3,6,9.87,16.83,10.47,26.2,13.65,4.66,1.58,10.05,1.1,13.32,5.79-.27,5-5.52,4.1-8.94,7.75,9.54,1.92,14.76,7.92,17.53,17.48,2.51-12,12.92-14.64,20.95-19.91,1.32-10.68,1.47-13.32-9.49-13.87-3.35-.17-6.53-1.74-9.66-3.05a15.75,15.75,0,0,1-2.84-1.78,11.83,11.83,0,0,0-6.62-2.35c-5.42-.32-9.22-2-8.7-8.54.33-4.26-3.24-4-6-4.64s-6.18-1.33-6.19-5,3.42-3.95,6.13-5.07c8.18-3.39,15.41-3.31,23.79,1.12,6.94,3.67,15.74,3.68,22.86,8.07,1.79,1.11,4.21.54,6.17-.26a30.3,30.3,0,0,1,13.37-1.89c-1.59-2.49-4-2.69-5.26-4.41-2.36-5.09,2.52-6.53,5.14-9.79-2.88-3-7.9-5.21-6.4-10.83a12.64,12.64,0,0,1,17.34-2c7.18,5.2,13.39,11.67,23.41,11.25a4.26,4.26,0,0,1,3.91,6.27c-2.58,5.83,1,7.92,5.09,10.42,4.67,2.89,10.18,2.41,15,4.39,5.06,7.31-1.09,13.36-2.25,20,18.74-14.44,21.05-34.93,10.12-53.27-.94-1.57-1.88-3.19-1.78-5.15.69-2.08,2.91-3.08,3.71-5,1.46-3.58,1.48-7.06-2.94-8.27-4.85-1.33-7.92-5-11.77-7.71C505.2,233.5,503.23,229.75,508.65,227.56Z" transform="translate(-40.31 -51.01)"/><path class="cls-27" d="M358,302.26c-2.13,3.76-2.29,7.85-2.08,12a118.39,118.39,0,0,0,0,26.61c2.44,23.05,11.89,43,27,60.37,3.28,3.78,7.14,7,10.63,10.64,2.58,2.67,4.72,2.37,7.34-.14,16-15.3,35.39-24.53,56.19-31.27,5.53-1.79,11.51-1.47,16.82-3.73,1.06-2.09-.24-3.72-.62-5.41-2.32-10.23,1.63-18.46,9.3-24.45,7.48-5.83,16.44-7.57,25.26-2.74,9.21,5,14.62,12.59,13.88,23.8-.19,2.86-3.52,6.32,0,8.62,2.28,1.47,5.57,1.36,8.39,2,30.63,6.92,56,22.74,76.87,45.89,2.3,2.54,4.43,5.25,6.63,7.87,6.23,9.46,13.8,8.59,22.25,3.17,2.15-1.39,4.92-1.79,7.58-2.08,17.1,0,34.21-1.51,51.25.81,2.51,4.52,6.25,6,11.45,5.58,11.42-.85,23,1.41,34.28-2.22,14.17,5.66,21.26,16.77,24,31.2-.64,5-3.66,4.87-7.09,3-1.8-1-2.7-3.13-4.46-4.28-4.39-3.46-5.55-9.25-9.42-13.09-.43-.54-.83-1.12-1.21-1.69-1.22-2.16-3.43-2.14-5.5-2.47-6-1.58-12.07-1.23-18.14-1.24-22.18,0-44.36.4-66.53-.16-12.9-.33-21.8,4.7-27.57,15.93a4.43,4.43,0,0,1-2,1.58,24.47,24.47,0,0,1-10.73-3.2C608,439,589.64,425.72,572.26,412.46a109.91,109.91,0,0,0-60-22.47,36.79,36.79,0,0,1-4.57-.3,16.19,16.19,0,0,1-2.18-.44c-2.52-1-5-.55-7.49.22-10,.79-20.07.46-29.92,2.85-26.95,6.56-50,19.63-68.42,40.56-1.75,2-3.27,4.19-6,5-7.61,1.69-9.38-3-9.87-9.05,1.08-4-.33-6.95-3.33-9.8-29.65-28-41.92-63-38.91-103.06,2.19-29.36,13.89-55,35-76.57-2.33.08-4.14,1.41-6.11,2.08s-4,1.47-6,2.15c-41,17.4-70.09,46.51-86.21,88.13s-14.57,82.92,3.81,123.31a151.64,151.64,0,0,0,52.33,62.45c1.52,1.05,3.22,1.85,4.34,3.41-.73,5.84-4.73,8-9.95,8.76-12.62-6.65-22.52-16.58-31.82-27.08-21.89-24.69-36-53.31-41.75-85.82A158.69,158.69,0,0,1,253.63,375a181.19,181.19,0,0,1,8.65-42.65c1.1-3.24,3.28-5.95,3.87-9.34,8.39-18,18.45-35,32.12-49.59,22.31-23.74,48.61-41.07,80.58-49.22,8.45-2.15,16.93-4,25.45-5.7,3.88-.78,7.37-.42,10.05,2.87,3.39,5.14.57,8.18-3.7,10.6C400,238,391.27,246.25,383.29,255.5a107.23,107.23,0,0,0-22,40.65C360.67,298.42,360.11,300.76,358,302.26Z" transform="translate(-40.31 -51.01)"/><path class="cls-28" d="M358,302.26c4-20.2,13.67-37.37,27.58-52.39,7.41-8,15.42-15.16,25.18-20.15,3.68-1.88,4.93-4.52,3.58-8.4a3.4,3.4,0,0,1,2.2,3c.19,1.36.61,2.81,2.14,2.94,5.24.44,10.59,1.26,15.26-2.27,3.25-2.46,3.42-3.76.74-7-1.92-2.33-5.32-4.11-2.79-8,2-3.07,7.67-5.39,11.21-4.43a15.11,15.11,0,0,1,3.44,1.85c2.49,1.5,4.74,1.23,5.9-1.5,1.25-2.95-1.08-3.52-3.29-3.93-.8-.14-1.5-.48-1.48-2a4.11,4.11,0,0,1,5.93.59c3.71,4.33,7.28,3.1,11,.29a11.94,11.94,0,0,1,2-1.34c5.24-2.43,9.6-.06,9.35,5.77-.16,3.91,1.6,4.57,4.5,4.8,2.63.2,5.39-.19,7.86.52,3.2.92,6.68,2,5.08,7.07-.79,2.51,1.9,3.33,4.14,3.57,1.07,2.22,0,4.13-1,6-7.1,13.48-4.55,26,3.75,37.93,4.36,6.27,9.43,12.14,11.79,19.58,1.33,4.21,3.25,8.56-.29,12.72-8.63,1-16-1.95-22.44-7.45-2.61-2.23-4.22-4.44-.39-7.61,2.81-2.32,1.84-4.59-1.61-5.42a1.75,1.75,0,0,0-.78-.08c-9.91,2.26-15.79-4.24-22.09-10-3.41-3.13-11.41-3.91-15.38-1.67-.52.29-.57,1.4-.85,2.14-5.06,1.51-6.05,7.7-12.18,9.29,5.06,3.19,6.81,8.43,12.08,9.68l11.26,4.23c-2.25,2.66-5.13,3.84-6.72,3.28-4.81-1.68-8.59.44-12.77,1.81-3.53,1.15-6.94,1.18-10.32-1.51a20.92,20.92,0,0,0-13.86-4.75c-5.17.11-9.41-3.16-13.59-5.79-2.41-1.51-4-1.81-6.23.08-3,2.56-6.69,2.72-10.42,2.86-1.62.06-3.11.88-3.15,2.82,0,1.65,1.53,1.95,2.63,2.56,1.68.94,3.57.66,5.4.81,5.29.42,5.77,1,5.26,6.23-.59,6-.6,6.11,5.28,6.4,3.48.17,6.88.17,9.19,3.36a57.81,57.81,0,0,1-3.64,10.94c-1.17,2.34-1.92,5.64-5.88,4.59a24,24,0,0,0-2.52-1.79c-5-2.66-10.7-2-16-3.18-5.07-1.12-8.45-6.8-14.78-6.11-3.49.39-5.81-2.17-6.31-5.72C360.71,305.19,360.1,303.35,358,302.26Z" transform="translate(-40.31 -51.01)"/><path class="cls-29" d="M640.42,435.64c-6.4,2.29-12.67,4.88-18.59,9.41-2.86-4.43-5.52-8.58-8.19-12.72,2.45-.14,2.92-1.78,2.93-3.82,0-13.15,2.23-26.19,1.9-39.39a16,16,0,0,0-5.55-12.37c-5.59-5.16-11.46-10-15.3-16.9-8-14.25-7.68-29.2-4.19-44.4,3.09-13.42,10.1-24.62,20.36-33.79a3,3,0,0,1,3-1.41,25,25,0,0,1,11-2.09c6.92-.72,12.24,3,17.68,6.36,2.78-.41,4.34,1.46,6,3.2,16,17.08,20.34,52.46,9.06,73-3.08,5.62-6.73,10.81-12.06,14.5-6.77,4.66-9.46,11-8.85,19.07.79,10.52,1.57,21,2.48,31.55C642.3,429.32,643.16,432.75,640.42,435.64Z" transform="translate(-40.31 -51.01)"/><path class="cls-30" d="M640.42,435.64c-1-14.14-1.78-28.31-3.15-42.43-.87-9,2.75-14.88,9.88-19.92A39.25,39.25,0,0,0,663.3,347c3.9-23.52-.39-45-17.89-62.52,2.79-5.58,8-5.42,13.23-6.58,6.31-1.4,11.26.29,16.61,2.63,3.59,1.58,5.84,4.36,8,7.4,3.52,3.44,2.88,7.93,2.2,11.92-1.94,11.48-1.55,23.11-2.38,34.64-1.17,16.39,2.78,31.5,18,41.25,3.68,2.36,6.48,5.57,6.68,10.19.69,15.8.72,31.59-1.93,47.26a6.11,6.11,0,0,1-1.43,2.79c-2.8,1.72-5.58,2-8.29-.2Z" transform="translate(-40.31 -51.01)"/><path class="cls-31" d="M703.9,435.28c1.21-15.53,2.31-31.06,2-46.66-.11-4.59-1.07-8.15-5.43-10.53-14.42-7.83-19.35-21.42-19.81-36.44-.4-12.85,1.24-25.77,2.26-38.64.4-5,.44-10,.34-15.05a12.86,12.86,0,0,1,2.43-7.4c1-1.31,2.27-2.25,4.06-1.82a4.11,4.11,0,0,1,3,3.3,11.45,11.45,0,0,1,.26,3.15c-.48,15.32,2.33,30.53,1.38,45.86a47.93,47.93,0,0,0,.11,6.34c.16,2.35,1.3,4.15,3.82,4.26s3.78-1.62,4-4c.18-1.84.15-3.7.15-5.54q0-22.22,0-44.42c0-2.34-.33-4.72,1.41-6.79,2.18-2.58,4.41-2.58,6.52,0,1.87,2.32,1.42,5,1.43,7.6.06,14.54,0,29.08.08,43.62,0,1.85,0,3.71.13,5.54.21,2.4,1.49,4.07,4,4s3.68-1.84,3.84-4.22c.12-1.85.11-3.7.11-5.55q0-21,0-42c0-2.92-.05-5.82,1.55-8.45,2-3.31,4.54-3.33,6.75-.11,1.48,2.16,1.1,4.56,1.1,6.9q0,21,0,42V335c0,3,.14,6.36,4,6.59s4.35-3.34,5.19-6a14.29,14.29,0,0,0,.28-4.72c-.53-12.91,1.12-25.87-1.23-38.74a18,18,0,0,1,.16-7.09c.62-2.78,1.49-6.13,5-6.3s4.57,3.22,5.24,6a28.94,28.94,0,0,1,.4,7.1c-.13,10,2.38,19.9,1.85,30-.05.89.85,1.83,1.31,2.75-.41,8.67.44,17.29-1.16,26-2.09,11.48-7.83,19.93-17.31,26-4.28,2.76-7.64,5.65-7,11.26a4.48,4.48,0,0,0,0,5l.22,20.51c1.8,3.56-.53,7.65,1.43,11.19.27,3.65-.76,7.51,1.76,10.79C721,439.64,712.46,439.73,703.9,435.28Z" transform="translate(-40.31 -51.01)"/><path class="cls-27" d="M272,710.65c-3.91.21-6.15-2.29-8.2-5.08q.82-5.58,1.64-11.16c8.64-19.58,13.88-40.33,20.62-60.57,3.83-11.48,8.08-22.87,10.26-34.85.68-3.78,3.66-5,6.72-5.91,12.93-3.79,23.72,1.27,29.11,13.53,3.84,8.71,5.78,18,8.79,27,7.2,21.48,12.95,43.44,21.49,64.49,2.68,6.61.45,10.58-6.48,12.08a32.92,32.92,0,0,1-13.41.2c-4.76-.94-8-3.5-9.08-8.64-1.18-5.67-3.06-11.2-4.15-16.88-.74-3.84-2.5-5.37-6.39-5.29-9,.16-18,.24-27,0-3.81-.11-5.18,1.71-5.82,4.91-1.24,6.2-2.77,12.35-3.64,18.6-.6,4.32-2.62,6.73-6.73,7.62A16.33,16.33,0,0,1,272,710.65Z" transform="translate(-40.31 -51.01)"/><path class="cls-32" d="M734.29,710.55c-8.76-2.63-9.56-4.27-6.7-13q14.1-43.14,28.12-86.31c.89-2.75,2.14-5.56,2.18-8.37.08-5.77,3.32-8.55,8.17-10.3a43.17,43.17,0,0,1,14.21-.11c9.77,2.52,12.89,10.77,16,18.87s5.59,16.19,8.36,24.29c6.36,20.89,12.12,42,20.1,62.34,2.81,7.19.09,11.27-7.7,12.48a34.65,34.65,0,0,1-4,.3c-12.84.49-15-1.19-17.85-13.49-1-4.36-2.24-8.66-3.14-13-.62-3-1.86-4.66-5.19-4.62-9.77.14-19.55.09-29.32.13-2.38,0-4.18.73-4,3.6a33.2,33.2,0,0,0-3.63,15.36c-.84,1.64-.28,3.56-1,5.22-.43,3.21-2.62,5.06-5.15,6.64A18.31,18.31,0,0,1,734.29,710.55Z" transform="translate(-40.31 -51.01)"/><path class="cls-33" d="M195.73,596c3.44-2,7.35-2.51,11.1-3.52,1.59-.84,3.52-.11,5.08-1.1,7.38,0,14.78-.44,22,1.4,7.79,2,15.21,4.56,19.51,12.15,2.32,4.1,3.35,8.28,1.11,12.79-2.32,4.68-5.8,7.21-11.28,7-6.13-.26-7.25-.59-9.53-7.3a16.28,16.28,0,0,0-12.11-11.3c-6.63-1.72-14.2,1.52-16.89,7.14s-.77,13.56,4.86,17.62c5.79,4.18,12.31,7.09,18.91,9.76a83,83,0,0,1,14.8,7.44c13.06,8.57,18,20.61,14.8,36.11-.26,1.28-.32,2.61-.48,3.92-10.32,22.55-30.48,24.86-49.79,23.18a46.08,46.08,0,0,1-15.19-4.2,34,34,0,0,1-14.85-12.7c-3.52-5.53-3.38-11.25,0-15.58,3.09-4,10.78-6.44,15.89-5.18,2.13.52,3,2,3.58,3.78a73,73,0,0,0,2.68,7.43c4.55,9.61,13.53,13.72,23.65,11,9.91-2.66,13.74-13.49,7.76-22.05-3.33-4.76-8.34-7.16-13.49-9.32-9.25-3.88-18.51-7.71-26.45-14.08-5.49-4.41-9.85-9.61-11.78-16.47-3.28-11.67-.44-21.94,7.78-30.68C189.91,600.58,192.94,598.41,195.73,596Z" transform="translate(-40.31 -51.01)"/><path class="cls-34" d="M511.79,297.42c1-10.19-3.49-18.54-9.52-26-6.63-8.18-11.31-17-12.23-27.54-.53-6.09,1.53-11.83,4.4-17.21,1-1.86,2.06-3.66,3.09-5.49C503.05,214,509.46,208,518.66,204c-3.27,8.23-8.55,15.13-10,23.53-2.37,3.16-2.37,6.33-.08,9.53,3,7,7.5,13.26,9.59,20.66,6,8.82,10.29,18,9.73,29.24-.37,7.38-2,13.9-6.41,19.78-4.1,5.47-8.77,10.24-15.11,13.56C507.7,312.43,512.85,305.64,511.79,297.42Z" transform="translate(-40.31 -51.01)"/><path class="cls-35" d="M558.09,823c.08-8.7.08-17.41.27-26.11,0-2.1-1.39-5,2.19-5.83,2.9-.63,4.88.6,6.66,3,3.57,4.86,6.84,10,11.94,14.81,1.66-5.12.62-9.75.75-14.25.07-2.3.21-4.19,3.18-4.37,3.33-.21,3.95,1.67,3.94,4.43-.06,9.23-.2,18.47.86,27.66-1.63,2.6-4,1.22-6.07,1.06-6.07-4.79-10-11.43-14.87-17.7-1.71,2.28-1.08,4.27-.93,6.21-.08,1.52-.23,3-.22,4.56C565.87,823.81,565.89,823.8,558.09,823Z" transform="translate(-40.31 -51.01)"/><path class="cls-36" d="M322.73,767.47c.15-6.86.36-13.72.42-20.59.06-6.26,0-6.28,6.57-6.38a65.39,65.39,0,0,1,9.5.13c10.4,1.41,14.77,11.1,8.27,19.13-2.51,3.11-1.91,4.88-.11,7.45,1.17,1.69,2.59,3.32,2.92,5.78-5.17,1.13-9.5,1.19-11.25-4.86a4.71,4.71,0,0,0-3.7-3.67c-2.38-.39-5.28-.57-4.7,3.17.82,5.25-1.8,6.56-6.28,6.23C322.31,772.12,323.35,769.58,322.73,767.47Z" transform="translate(-40.31 -51.01)"/><path class="cls-37" d="M694.36,766.26a20.24,20.24,0,0,1-.5,4.71c-.85,2.45-3.11,2.64-5.28,2.35s-2-2.15-2-3.68c0-8.19,0-16.38.14-24.57,0-1.47-.66-3.43,1.23-4.15s4.26-.83,5.86,1,2.89,3.77,4.36,5.64c2.89,3.69,5.81,7.38,10.28,10.75,0-3.79-.09-7.59,0-11.38.16-6.05.22-6.05,6.62-6.41.15,11,1,22.06-.32,33.07-5,.57-8.19-1.84-10.74-6.05-2.36-3.91-5.42-7.39-8.18-11.06C691.3,759.13,694.36,762.93,694.36,766.26Z" transform="translate(-40.31 -51.01)"/><path class="cls-38" d="M497.5,823.35l-1.92-1.73c-3-1.66-5.18-4.19-7.57-6.52-1.74-.17-3.2.09-3.24,2.29,0,1.84,0,3.69,0,5.53-2.65,1.1-5.27,1.93-7.72-.43,0-8.94.17-17.88,0-26.81-.09-3.76,1.18-5.29,5-5s7.88.12,11.8.47c5.09.47,9,2.74,10.43,8.08,0,4.41.59,9-3.51,12.21-1.6,1.26-1.1,2.57-.28,4.08,1.22,2.26,2.93,4.32,3.14,7C501.68,824.06,499.49,822.92,497.5,823.35Z" transform="translate(-40.31 -51.01)"/><path class="cls-39" d="M305.33,740.21c9.53,3.58,12.84,10.92,12.43,20.52C313,772,304.85,776.19,295,772.61c-8.13-2.93-12.77-10.25-11.64-18.35,1.08-7.71,8.18-13.88,16.51-14.25C301.65,739.92,303.49,740.14,305.33,740.21Z" transform="translate(-40.31 -51.01)"/><path class="cls-40" d="M405.16,821.45c.17-8.42.4-16.84.48-25.26,0-2.81-.1-5.34,3.85-5.28,3.52.06,3.57,2.32,3.47,4.84,0,1,.05,2.11,0,3.16-.27,3.85,1.72,5.2,5.29,4.93,1-.07,2.1,0,3.16,0,5.55-.25,5.67-.46,6-5.82.17-2.74-1.21-5.87,1.65-8.08,3.63.89,5.68,2.52,5.36,7-.51,7.09-.18,14.24-.27,21.37,0,2.28.54,4.93-3.19,5.06s-3.51-2.19-3.62-4.7c-.37-9.05-.72-9.21-10-8.54-3,.21-4.42,1.14-4.15,4.22a32.68,32.68,0,0,1,.11,4c-.07,2,.65,4.31-2.15,5.29C408.5,824.43,406.44,824.15,405.16,821.45Z" transform="translate(-40.31 -51.01)"/><path class="cls-41" d="M374.84,804c1.37-3.11,2.83-6.2,4.08-9.36,1-2.53,2.63-3.59,5.39-3.65,3.1-.06,4.89,1.09,6,4,3.49,9.1,7,18.23,12.27,26.5-5.27,3-6.4,2.85-9.28-1.24-3.35-4.74-13.06-5.23-16.78-.84-3.09,3.65-3.09,3.65-8.81,3.32C369.38,816.08,373.51,810.51,374.84,804Z" transform="translate(-40.31 -51.01)"/><path class="cls-42" d="M527.49,804c1.18-2.62,2.47-5.19,3.54-7.86s2.11-5,5.92-5.07,5.07,1.83,6.24,4.71c3.57,8.73,7,17.5,11.8,25.69-5,2.76-6.73,2.86-8.75-.82-1.62-2.94-3.37-4.48-6.7-4-3.66.58-8.23-1.6-10.56,3.05-2,3.9-4.87,4.13-8.82,2.91C521.85,816.07,526.1,810.56,527.49,804Z" transform="translate(-40.31 -51.01)"/><path class="cls-43" d="M627.54,821.45l13-30.21c2.59-1.19,5.23-.85,7.88-.25l1.38,1c1.56,8.14,6.29,15,9.07,22.67.9,2.46,2.62,4.61,2.71,7.88-3.31,1.18-6.56,1.86-8-2.51-1-3-2.87-3.4-5.43-3.28-5,.22-10.43-1.39-13.36,5.32C633.73,824.3,629.75,824.62,627.54,821.45Z" transform="translate(-40.31 -51.01)"/><path class="cls-39" d="M658.38,767.53c-1.4,1.86-2.58,4-4.27,5.5-1.13,1-3.1.88-4.52.15s-1.07-2.2-.55-3.47c3.57-8.77,7.17-17.52,10.71-26.3,1.09-2.69,3.21-3.06,5.77-3,2.34,0,4.14.64,5,3,2.93,8.47,7,16.43,10.57,24.65,1.75,4.07,1.21,4.59-3.95,5.66l-3.19-3L672,767.52A22.35,22.35,0,0,0,658.38,767.53Z" transform="translate(-40.31 -51.01)"/><path class="cls-44" d="M340.05,799.22c.7-6.14,5.54-7.57,10.33-8.7a16.57,16.57,0,0,1,13.29,2.64c.53.36.28,1.9.4,2.89-1.39,1.55-2.42,3.23-5.19,1.73-2.21-1.2-4.92-2.17-7.63-1-1.47.64-3,1.39-3,3.3a3.25,3.25,0,0,0,2.38,2.88,13.61,13.61,0,0,0,3.78,1,16.26,16.26,0,0,1,6.66,2.39c3.18,1.79,5.34,4.26,4.76,8.33a9.45,9.45,0,0,1-6.62,8.14,23.28,23.28,0,0,1-15.58-.38c-1.89-.68-4.21-1.58-2.74-4.56,1.06-2.16,2.22-3.36,4.89-2a26.7,26.7,0,0,0,6.07,1.76,6.12,6.12,0,0,0,5.25-1.14c1.86-1.39,2.18-2.88.12-4.41-2.44-1.83-5.46-2-8.25-2.62C343.26,808.29,340.09,805.19,340.05,799.22Z" transform="translate(-40.31 -51.01)"/><path class="cls-45" d="M221.05,435.7a15.81,15.81,0,0,0,7.69,8.16l-9.2,10.57c-1.2-4.7-6.49-6.07-6.43-11C217,442.14,218.27,438.13,221.05,435.7Z" transform="translate(-40.31 -51.01)"/><path class="cls-46" d="M256.6,206.43c-8.82,4.38-40.89,10.83-58.24,12.06C216.51,208.62,235.78,204,256.6,206.43Z" transform="translate(-40.31 -51.01)"/><path class="cls-46" d="M802.33,219.3c-19.47-3.26-38.88-6.2-58.38-11.66C753.65,201.28,790,209,802.33,219.3Z" transform="translate(-40.31 -51.01)"/><path class="cls-47" d="M883.54,713.44a5.72,5.72,0,0,1-.47,2.09c-.42.63-.69,2.16-2,1.06-.15-.12.4-1.3.83-1.82a8.17,8.17,0,0,1,1.72-1.25Z" transform="translate(-40.31 -51.01)"/><path class="cls-48" d="M377.1,594.56a13.1,13.1,0,0,1-3-1c-1.46-.89-2.26-2.25-1.51-4,.62-1.48,2.09-1.64,3.36-1.47,5.9.79,11.45-1.81,17.27-1.68,3,.06,5.58-1.08,8.55-2.77-1.71-2.89-4.93-1.82-7-3.2-2.46-1.67-4.06-2.7-2.13-6.17,2.33-4.21,1.55-5.25-2.5-7.32-2.5-1.28-5.11-1.15-7.75-1.15-10.86,0-21.71-.08-32.57,0a27.07,27.07,0,0,1-12.17-3c-1.63-.78-2.43-2.1-1.73-3.86s2.06-2.9,3.71-2c5.86,3.25,11.92.78,17.83.79q184.68.16,369.36.05c5,0,9.85.43,14.36,2.75-.45,2.53-2.35,2-3.78,2-7.39-.06-14.84-.64-22.15-.36-26.92,1-53.81,2.42-80.78,2.13-6.21-.06-12.56,1.21-18.64,2.72-7.2,1.79-7.82,3.69-5.22,10.82-4.28,1.23-8.5,2.68-13.07,2.21a4.41,4.41,0,0,0-1.58,0c-2.69.72-6.7.77-6.58,4.2.09,2.62,3.79,3.41,6.41,3.57,5,.29,9.92.43,14.64-2.25,7.09-4,14.6-3.71,22.08-.82a41.24,41.24,0,0,0,15.36,3.25c2.21,0,5.24-1.17,6.34,1.71.92,2.41-.78,4.5-2.59,6.18-5.81,2.7-10.92-1.31-16.42-1.68a70.88,70.88,0,0,0-24.61,0c-5.47.65-10.94,1.32-16.45,1.56-4.67-1.41-6.94-.46-5.93,5.14.6,3.37.9,6.79,2,10.1,3.45,23.52,2.28,47.09.84,70.65-.17,2.8-.63,5.79-3,7.88-2.56-3.29-3.17-7.11-3.14-11.14a32.33,32.33,0,0,0-.34-6.31c-.36-1.84-1.59-3.6-3.6-3.72-1.69-.1-2.64,1.54-3.45,2.93a6.24,6.24,0,0,0-.51,1.49c-.55,2.16-1.62,4.59-3.84,4.45-3.26-.2-2.15-3.59-2.83-5.66-2.64-3.16-2-7-2-10.63-.08-17.44,0-34.88,0-52.32a36.6,36.6,0,0,0-.49-7.89c-.92-4.16-4-5.28-7.71-5.38-3.89-.1-6.68,1.42-7.33,5.62-.69,4.49-.06,8.94.35,13.42,1.61,17.66.92,35.36.45,53A46.74,46.74,0,0,1,551,680c-3,9.77-11.06,16.32-20,16.45-8.8.13-17.47-6.34-20.83-15.68a59.08,59.08,0,0,1-3.34-17.07c-.8-16.62-1.31-33.26.39-49.86a54,54,0,0,0,.55-5.52c0-4.23.53-8.91-3.84-11.37-4.88-2.76-10.29-2.38-15.31-.21-5.18,2.24-4.4,7.26-4.6,11.69-.43,15-.07,30-.17,45A30,30,0,0,1,480.93,667c-3.17,6.44-2.53,14-2.12,21,.35,5.82,5.74,2.2,8.95,2.56,5.39,2.13,8.61,6.22,10.41,11.59-1.58.13-3.31-.11-4.7.46-3.84,1.58-7.09,1.4-9.86-2a1.7,1.7,0,0,0-2.72-.25,3.47,3.47,0,0,0-.52,2.15c.12,8-2,10.72-9.21,12.77-9.6,2.72-19.37,1.19-29.06,1.26-5.13,0-5.73-2.81-2.12-7.75a12.66,12.66,0,0,1,5.51.32,19.13,19.13,0,0,0,11.62-.1,13.77,13.77,0,0,0,7.6-7.57,76.64,76.64,0,0,1,2.73-9.06c1.89-5,2.93-10.24-1.39-14.84-2.82-3-2.43-6.84-2.46-10.52-.14-19,.2-38-.21-57.07-.39-12.11-3.64-15.46-14.2-14.6-7.29.6-10.14,3.83-9.13,11.74,1.12,8.69,1,17.37,1,26.08,0,6.58-3.2,9.63-9.74,9.63-8.18,0-16.37.14-24.55-.08-6-.16-8.71-3.23-7.81-9.18,1.39-9.2.91-18.45.81-27.68-.1-8.7-2.09-10.32-11-10.66C384.89,595,380.89,596.64,377.1,594.56Z" transform="translate(-40.31 -51.01)"/><path class="cls-49" d="M752.75,465.88a3.93,3.93,0,0,1,4.26,2.6c2.29,5,4.87,3.12,7.49.31,2.75-.33,4.89,1.78,7.52,1.93,3.59,1.51,6.27,3.76,6.53,8,.18,1,.35,2,.52,3a9.22,9.22,0,0,1-.14,6.28c-2.39,6.5-8.48,9.55-13.07,14-1.08,1.53-.18,3.55-1.26,5.07a20.85,20.85,0,0,0-1.87,9.33c-1.21,1.45-.19,3.5-1.32,5-1.1,3.74-2.69,7.41-3.21,11.23-1.8,13-15.15,24.08-29.74,24-125.13-.4-250.26-.22-375.39-.24-14.46,0-21.47-6.62-22.19-20.88-.11-2.2-.3-4.18-2-5.74l9.79-8.29c-.56-3.3,2.09-4.24,4.19-4.58,6.42-1,7.33-5.58,8-10.83,1.58-12.75,3.77-25.38,9.18-37.21,3.71-11.89,9.86-22.55,16.82-32.75,1.93-2.83,3.33-6.76,7.82-6.86.37.37,1.06.75,1.05,1.11-.15,4.93,3.23,6.32,7.12,7.23.8,3.58-1.67,5.88-3.35,8.48-12.31,19-21.48,39.14-22.16,62.31-.08,2.6-1.09,5.31,2,6.91a452.12,452.12,0,0,0,55.22-.09c23.45-1.63,46.83-.82,70.24-.86,20.58-.08,41.19-.68,61.74.16,14.51.6,28.93.9,43.39-.23,2.53-.2,5.76.77,7.13-2.08,1.51-3.15-.22-6.22-1.89-8.9-1.26-2-3.56-3.11-5.28-4.74-8.77-8.22-8.3-21.09,1.39-28,3.62-2.59,6.37-6.38,10.77-7.87,3.59-.16,7,.13,9.45,3.3,6.77,1.6,13.62.66,20.43.63,28.26-.14,56.52-.35,84.76.11C735.38,466.29,744.1,467.21,752.75,465.88Z" transform="translate(-40.31 -51.01)"/><path class="cls-50" d="M377.1,594.56A29.58,29.58,0,0,1,395,592.88c6.49,1.25,8.3,3.2,7.7,9.69-1,10.55-.8,21.12-1.33,31.67-.31,6.27-.24,6.36,5.61,6.4,9,.06,18-.13,27,.05,3.7.07,5.24-1,5-4.94-.5-9.74.28-19.5-1.49-29.23s2-13.76,11.79-14.18a34.92,34.92,0,0,1,4,.11c9.9.67,12.37,3.36,12.31,13.37,0,1.32,0,2.63,0,3.95-.46,24.08-2.35,48.2,1.14,72.2,1.07,7.4-.21,14.61-.51,21.91-2.22,3-4.66,5.68-8.43,6.7a33.38,33.38,0,0,1-12.6,0c-1.54-1.14-4,.37-5.18-1.84-2.81-4.18-3.22-8.8-2.34-13.59,2-10.75.85-21.61,1.28-32.42.16-3.94-1.49-5-5.13-4.92-9.25.15-18.51.21-27.75-.1-4.42-.15-5.39,1.73-5.18,5.61.59,11.08.82,22.18,1.52,33.25.72,11.47-1.51,14.07-13.19,14.16a33.61,33.61,0,0,1-7.1-.48c-5-1-7.17-3.76-7.25-8.83,0-3.16.3-6.33.42-9.49,1-25.88.82-51.76.31-77.64a55.69,55.69,0,0,0-1-10.24A10.3,10.3,0,0,1,377.1,594.56Z" transform="translate(-40.31 -51.01)"/><path class="cls-51" d="M592.88,594.44l17.49-1.94a138.27,138.27,0,0,1,25.33,0l16,3.49a11.69,11.69,0,0,0,1.88,1.39c21.62,10,23.3,42.08.49,56.66-1.75,1.12-3.64,2-6.28,3.48,8.71,7,12.31,16.7,16.67,26,1.88,4,4.93,6.75,8.36,9.34,6.29,4.74,6.07,10.7-.41,15.34-7.92,5.68-21.9,3-27.42-5.41-3.49-5.32-5.45-11.41-8-17.19-2.24-5.07-4.45-10.16-7-15.08-2.23-4.35-6-6.49-11-6.62-2.58-.07-4,.86-3.85,3.61.39,8.45-.89,17,.77,25.34,3,15.2-2.5,18.79-16.36,17.94-8.8-.54-11.77-3.77-11.64-12.39.05-2.91.07-5.81.1-8.71,1.69-27,2.61-54-.28-81C588.4,603.52,583.48,596.4,592.88,594.44Z" transform="translate(-40.31 -51.01)"/><path class="cls-52" d="M498.17,702.12c-2.4-4-7.72-5.7-8.82-10.79-8.13-6.45-8.27-15.9-7.72-24.62a556.7,556.7,0,0,0,.2-58.49c0-.79,0-1.58,0-2.37-.36-9.94,2.28-12.85,12.05-13.29h.79c13.22-.95,17.19,3.51,15.64,16.52-2.43,20.47-1.85,41.1-.1,61.65a32,32,0,0,0,3.59,12.86c3.87,7,9.79,11.06,18,10.56,7.95-.49,13.27-5.11,16.17-12.15a49.55,49.55,0,0,0,3.49-19.35c-.14-17.94.88-35.91-1.48-53.79-.2-1.57-.12-3.17-.34-4.74-1.41-10.11,4.1-11.8,11.45-11.46,7.72.36,10.45,3,10,10.94-1.16,21.64-.64,43.3-.85,64.95,0,1.05,0,2.11,0,3.16-.9,3.82-1.52,7.73-2.76,11.44-5.19,15.53-15.27,25.56-32,28C521.87,713.11,509.34,710.47,498.17,702.12Z" transform="translate(-40.31 -51.01)"/><path class="cls-53" d="M711.84,710.21c-4.46.41-8.86,1.56-13.42.9-7.89-1.14-10.63-4-10.36-12.06.79-23.55.51-47.1.57-70.65,0-8.47-.08-16.93-.68-25.39-.44-6.23,1.6-8.69,7.61-10a30.8,30.8,0,0,1,5.52-.5c10.57-.33,15.47,2.58,14.46,14.84a532.81,532.81,0,0,0-.42,84.84,61.78,61.78,0,0,0,1.75,10.14C719.05,707.42,714.78,708.39,711.84,710.21Z" transform="translate(-40.31 -51.01)"/><path class="cls-54" d="M575.81,740.87c-2.5,4.62-6,7.79-9.18,11.22-1.93,2.1-2.08,3.9-.21,6.15,3.37,4,6.54,8.25,9.65,12.2,3.08-.13,2.75-2.6,3.4-4.07,3.26-7.48,6.17-15.12,9.49-22.58,1.91-4.3,8.23-5,9.9-.95,4.13,9.93,9.63,19.3,12.68,30-4.26,1.42-7.07,1-9.2-3.29-2.31-4.7-12.8-4.82-16.06-.56-4.89,6.4-15,6.79-20.12.71-2.17-2.6-4.18-5.34-6.51-8.33-3.35,2.28-4.94,5-4.77,8.68.1,2.12-.49,3.54-3,3.58-2.73,0-3.78-1.25-3.79-3.82,0-8.72-.1-17.43-.16-26.15,0-2.37,1.28-3.14,3.5-3.16s3.63.55,3.64,3c0,3.33,0,6.66,0,11.15,4.78-3.62,7.63-7.35,10.54-10.91C568.28,740.41,571.33,739.65,575.81,740.87Z" transform="translate(-40.31 -51.01)"/><path class="cls-55" d="M496.65,756.72c-1.91,3.41-3.64,6.95-5.79,10.21-2.46,3.74-3.82,3.68-6.34,0-2.17-3.2-4.12-6.55-7.63-9.6,0,4.29,0,8.58,0,12.87,0,2.21-.71,3.43-3.18,3.42s-4.23-.65-4.09-3.49a205.68,205.68,0,0,0-.16-25.32c-.14-1.87-.48-3.89,2.13-4.3,2.1-.33,4.26-.53,5.57,1.78,1.57,2.75,3.17,5.48,4.75,8.22,1.71,3,3.41,5.93,5.34,9.29,4-3.65,5.29-8.68,8.11-12.66,1.06-1.5,1.79-3.23,2.75-4.81,1.35-2.24,3.5-2.11,5.61-1.6s1.68,2.4,1.69,3.89c.06,8.45.06,16.9.08,25.35,0,2-.3,3.68-2.92,3.69s-4-.75-4-3.6c.09-4.36,0-8.73,0-13.1Z" transform="translate(-40.31 -51.01)"/><path class="cls-56" d="M637.21,758.8c0-6.11,0-10.48,0-14.85,0-2.19.72-3.41,3.19-3.41s4.19.72,4.22,3.44c.12,9,.17,18,.23,27,0,2.13-1.37,2.4-3.16,2.49-3.12.14-4.7-1.94-6.47-3.93-3.87-4.32-6.31-9.77-11.24-14.07-1.56,3.18-.67,6.29-.86,9.22-.13,1.84.07,3.71-.07,5.55-.21,2.72-2.18,3.37-4.48,3.36s-3.32-1.45-3.32-3.57c0-9,0-18,.17-27,.05-2.4,3.42-3.4,6.25-2.1,1.77.82,2.63,2.52,3.77,4C628.79,749.12,631.73,753.72,637.21,758.8Z" transform="translate(-40.31 -51.01)"/><path class="cls-57" d="M594.51,822.85c0-9.25.12-18.5,0-27.75-.06-3.07.92-4.37,4-4.24,4.49.19,9,0,13.48.4,7.21.61,12.12,5.06,13.86,12.09a15.68,15.68,0,0,1-6,16.85,14.49,14.49,0,0,1-6.35,3C607.13,823.92,600.79,824.7,594.51,822.85Z" transform="translate(-40.31 -51.01)"/><path class="cls-43" d="M356.14,756.83c0-4.23.1-8.47,0-12.69-.08-2.77,1.12-3.79,3.77-3.72,4.49.1,9-.25,13.48.17,8.28.78,13.84,7,14.27,15.38.4,7.89-4.33,14.29-12,16.48-5.2,1.47-10.52.64-15.78,1-2.78.19-3.68-1.38-3.65-3.91,0-4.23,0-8.47,0-12.7Z" transform="translate(-40.31 -51.01)"/><path class="cls-58" d="M450.24,773.14c-4.65,1-8.3,0-10.27-4.77a10.34,10.34,0,0,0-1.69-2.66c-1.61-1.92-3.82-1.58-5.84-1.12s-1.68,2.45-1.57,3.9c.25,3.34-.1,5.81-4.5,5.15-2.85-.43-3.22-2.43-3.22-4.57,0-8.42.18-16.83.28-25.25,0-1.78.65-3.2,2.66-3.13,5.48.16,11-.73,16.46.76,8.24,2.21,11.59,13,5.59,18-3.34,2.79-2.34,5.13-.35,8C449,769.12,450.5,770.75,450.24,773.14Z" transform="translate(-40.31 -51.01)"/><path class="cls-57" d="M392.92,756.4c0-4,.08-7.94,0-11.9-.07-2.63,1-4,3.66-3.93,5.82,0,11.64,0,17.46,0,1.88,0,3.07.85,3.18,2.72.13,2.19-.93,3.46-3.27,3.45-3.44,0-6.88,0-10.31,0-2.28,0-3.35,1-3.36,3.35s1,3.46,3.25,3.48,4.76,0,7.14,0c2.16,0,4.36-.14,4.57,2.95.21,3.29-2.11,3.07-4.23,3.1-2.38,0-4.76,0-7.14,0-2.21,0-3.49.76-3.45,3.2,0,2.28.27,4.38,3.23,4.37,3.7,0,7.41.16,11.06-.7,2-.46,3.06.55,3.19,2.42s.44,4.28-2.09,4.37c-6.87.26-13.74.18-20.61.07-2.08,0-2.3-1.78-2.3-3.46V756.4Z" transform="translate(-40.31 -51.01)"/><path class="cls-59" d="M449.91,823.26c-5.37-1.87-7.65-6.14-8-11.34-.39-5.77-.08-11.58-.24-17.37-.08-2.76,1.21-3.63,3.74-3.85,3.07-.26,3.51,1.49,3.5,3.86,0,3.68-.12,7.37-.05,11.06a37.49,37.49,0,0,0,.6,6.26c.71,3.64,3.16,5.31,6.79,5.27,3.85,0,5.94-2.34,6.14-5.88.29-5.25.16-10.53.05-15.8-.06-2.86-.08-5.37,3.87-5.25,3.67.12,4.13,2.32,4,5.34-.2,3.68-.08,7.38-.11,11.06-.13,12.4-2.53,15.23-15.09,17.8C453.47,823.5,451.49,824.25,449.91,823.26Z" transform="translate(-40.31 -51.01)"/><path class="cls-60" d="M509.94,771c.27-.79.56-1.81,1-2.77,3.32-7.76,6.79-15.46,9.95-23.28,1.11-2.75,2.36-4.39,5.62-4.4s4.72,1.71,5.85,4.32c3.35,7.74,6.76,15.46,10.13,23.19.7,1.6,2.33,3.6,0,4.79-2.12,1.09-5.34,1.18-6.2-1.43-1.77-5.35-5.55-5.42-10-5.32-3.72.09-6.75.69-8.42,4.49-1.11,2.55-3.38,3.1-6,2.72C510.64,773.14,510.08,772.4,509.94,771Z" transform="translate(-40.31 -51.01)"/><path class="cls-61" d="M252.11,490.1c1.69,7.34,6.64,11.22,13.09,13.68-1.46,4.58-6.56,3.78-8.42,6.86-1.73,2.86-3.23,5.87-5,9.1-4-2.33-3.27-6.75-5.39-9.58s-6.42-2.19-8.87-5.24c1.87-3.6,6.63-2.74,8.85-5.71C248.39,496.52,248.65,492.77,252.11,490.1Z" transform="translate(-40.31 -51.01)"/><path class="cls-49" d="M703.9,435.28l25.7.06c3.84-.29,7.15,1.92,10.85,2.25a13.13,13.13,0,0,1-11,4.46c-10.45-.36-20.91-.1-31.37-.14-1.75,0-3.92.49-4.71-1.77s1.78-2.87,2.68-4.32Z" transform="translate(-40.31 -51.01)"/><path class="cls-1" d="M711.84,710.21c2-2.4,4.79-4.33,5-7.87,2.14-1.19.82-4.06,2.6-5.42,3.62,3.44,5,9.2,2.86,12.89-1.59,2.71-3.64,4.55-6.9,1.75C714.52,710.78,713.06,710.65,711.84,710.21Z" transform="translate(-40.31 -51.01)"/><path class="cls-1" d="M202.23,495.3c3.65-1.17,6.71-1.94,8.72,1.59,1.42,2.49-1.54,9.75-4.15,10.88-2.15.94-4.11-.13-3.6-2.12.42-1.67,2.28-2.92,1.17-5C203.55,499,203,497.3,202.23,495.3Z" transform="translate(-40.31 -51.01)"/><path class="cls-1" d="M488,815.1c5.59-1.39,5.55,3.76,7.57,6.52-1.78.86-1.53,5-4.95,3.14S486.43,820,488,815.1Z" transform="translate(-40.31 -51.01)"/><path class="cls-1" d="M778.55,478.72a40.23,40.23,0,0,0-6.53-8c2.51.47,5,1,7.52,1.38,1.54.23,3.3.15,3.59,2.13s-1.49,2.34-2.89,3A7.11,7.11,0,0,0,778.55,478.72Z" transform="translate(-40.31 -51.01)"/><path class="cls-1" d="M594.51,822.85l19,.39C607.11,825.31,600.77,826,594.51,822.85Z" transform="translate(-40.31 -51.01)"/><path class="cls-1" d="M658.38,767.53c4.53-2.24,9.07-2.6,13.61,0Z" transform="translate(-40.31 -51.01)"/><path class="cls-1" d="M780.27,592.47l-14.21.11A16.6,16.6,0,0,1,780.27,592.47Z" transform="translate(-40.31 -51.01)"/><path class="cls-1" d="M694.36,766.26c-1.56-3.09-1.14-6.44-.88-9.64.16-2,1.49-1.44,2.38-.13C693.41,759.45,695.27,763.07,694.36,766.26Z" transform="translate(-40.31 -51.01)"/><path class="cls-1" d="M727.84,424.55c-2.64-3.46-1.16-7.43-1.43-11.19C729.17,416.8,727.44,420.81,727.84,424.55Z" transform="translate(-40.31 -51.01)"/><path class="cls-1" d="M734.29,710.55h9.44A7.89,7.89,0,0,1,734.29,710.55Z" transform="translate(-40.31 -51.01)"/><path class="cls-1" d="M648.39,791l-7.88.25C643.07,788.85,645.7,789.06,648.39,791Z" transform="translate(-40.31 -51.01)"/><path class="cls-1" d="M272,710.65l7.77,0A6.17,6.17,0,0,1,272,710.65Z" transform="translate(-40.31 -51.01)"/><path class="cls-1" d="M477.06,822.49a12,12,0,0,0,7.72.43C482.05,825.44,479.45,825.91,477.06,822.49Z" transform="translate(-40.31 -51.01)"/><path class="cls-1" d="M778.93,488c.05-2.09.09-4.18.14-6.28C780.9,483.82,780.9,485.91,778.93,488Z" transform="translate(-40.31 -51.01)"/><path class="cls-1" d="M581.81,823.42c2.05-.23,4.16,0,6.07-1C586.39,825.77,584.2,825.14,581.81,823.42Z" transform="translate(-40.31 -51.01)"/><path class="cls-1" d="M748.88,703.92c-.32-1.87-.38-3.69,1-5.22C750.14,700.55,750.51,702.43,748.88,703.92Z" transform="translate(-40.31 -51.01)"/><path class="cls-1" d="M761.41,521.32a6.12,6.12,0,0,1,1.32-5C762.9,518.17,763.12,520,761.41,521.32Z" transform="translate(-40.31 -51.01)"/><path class="cls-1" d="M211.91,591.4c-1.47,1.39-3.25,1.35-5.08,1.1C208.25,590.87,210.08,591.16,211.91,591.4Z" transform="translate(-40.31 -51.01)"/><path class="cls-1" d="M449.91,823.26a8.32,8.32,0,0,1,5.17,1.16C453.2,824.72,451.32,825,449.91,823.26Z" transform="translate(-40.31 -51.01)"/><path class="cls-1" d="M764.6,507a6.26,6.26,0,0,1,1.26-5.07C766.07,503.8,766.31,505.65,764.6,507Z" transform="translate(-40.31 -51.01)"/><path class="cls-1" d="M726.19,392.85c-1.71-1.68-1.74-3.35,0-5Z" transform="translate(-40.31 -51.01)"/><path class="cls-62" d="M555.87,241.07c-3.89,12.66-5.06,23.92,2.85,34.7,2.92,4,4.87,8.76,6.75,13.39,4.12,10.12,2.35,20-3.73,28.51-4.24,6-8.73,12.47-16.78,14.23-1.62-2.16.11-3.14.91-4.33,3.87-5.8,5.7-12.35,7-19.08a12.12,12.12,0,0,0-.48-6.22,82.33,82.33,0,0,0-7.45-15.63c-7.31-12.63-8.16-25.53.63-37.59C548.13,245.53,551.48,243.16,555.87,241.07Z" transform="translate(-40.31 -51.01)"/><path class="cls-63" d="M400.59,324.21c3.64-1.43,3.75-5.06,5.12-8,1.24-2.62.84-6.27,4.4-7.56l1.51,1.5c3.87,9.62,12.74,13.83,20.65,19.08.1,3.21-2.47,4.08-4.69,4.41-8.07,1.19-12.61,5.85-14.64,13.53-.51,1.95-1.23,4.08-3.42,4.94-3.14-1.31-3-4.45-3.63-6.76-1.69-6.23-5.16-10.24-11.55-11.62a27.85,27.85,0,0,1-3.72-1.31c-.95-.37-2.2-.51-2.1-1.93a2.7,2.7,0,0,1,1.84-2.33C393.78,326.89,397.48,326.32,400.59,324.21Z" transform="translate(-40.31 -51.01)"/><path class="cls-64" d="M448.15,286.29c-1.7,1.68-3.65,5.18-5.26.23-1.67-5.13-6.52-6.45-10-9.06.14-2.5,2-3,3.35-3.23a8.54,8.54,0,0,0,7-6.71c1.53-5.7,3.31-1.43,5-.21-.79,5,2.83,6,6.37,7.31,1.08.39,2.76.64,2.67,2.39a2.93,2.93,0,0,1-2.56,2.58C451.06,280.45,448.54,282.29,448.15,286.29Z" transform="translate(-40.31 -51.01)"/><path class="cls-28" d="M432.27,329.26a32.84,32.84,0,0,0-4.4-1.54c-9.59-2-14.66-8.15-16.25-17.54,5.57,1.09,10.79,3.44,16.7,3.42,3.93,0,6.54,3.55,4.81,6.94C431.5,323.72,435.61,326.79,432.27,329.26Z" transform="translate(-40.31 -51.01)"/><path class="cls-1" d="M518.16,257.75c-4.91-6.09-9.75-12.22-9.58-20.66a5,5,0,0,1,4.57,2.61c1,1.73,2.79,3.42,4.31,3.05,6.12-1.47,6.29,3,6.93,6.64C525.17,253.71,523.86,255.17,518.16,257.75Z" transform="translate(-40.31 -51.01)"/><path class="cls-28" d="M355.94,340.88a56.68,56.68,0,0,1,0-26.6Q355.95,327.57,355.94,340.88Z" transform="translate(-40.31 -51.01)"/><path class="cls-1" d="M616.74,280.25a3.3,3.3,0,0,1-3,1.41,5.22,5.22,0,0,1-2.92-2.52c-.45-1-.64-2.09.25-2.91s1.92-.41,2.78.3A8.42,8.42,0,0,1,616.74,280.25Z" transform="translate(-40.31 -51.01)"/><path class="cls-65" d="M496,516.62c-12.4.19-24.8.46-37.2.55q-42.34.32-84.69.44c-2.82,0-5.82.8-8.45-1.05,7.93-1,9.07-6.16,10.18-13.33,7.78-50.16,36.41-84.6,82.35-104.73,15.41-6.76,32.24-9.13,49-10.61l4.63.34c7.28.71,12.57,5.33,17.68,9.73,17.46,15,29.38,32.86,29,57.21-.29,17.15-7.91,30.31-20.2,41.28-9.85,8.8-21.49,14.21-34.35,17.13C501.18,514.21,498.06,514.15,496,516.62Z" transform="translate(-40.31 -51.01)"/><path class="cls-66" d="M362.1,468.71a142.09,142.09,0,0,0-9.23,39c-.14,1.31-.53,2.59-.6,3.9-.21,4.25-1.65,6.94-6.65,6.6a8.73,8.73,0,0,0-6.94,3.26c-4.58-.28-7.73-3.43-10.93-6-25.51-20.53-44-45.89-54.41-77.26a153.7,153.7,0,0,1-1-95.76c9.89-32,27.64-59.06,55-79.46a201.72,201.72,0,0,1,29.55-18.36c2.33-1.18,4.58-2.72,7.41-2.44-.09,5.38-4.59,7.38-8,10.1-26.12,21-43.43,47.92-48.85,80.86-6.68,40.56,1.44,78,28.33,110.65C343.63,453.29,353.6,460.13,362.1,468.71Z" transform="translate(-40.31 -51.01)"/><path class="cls-67" d="M362.1,468.71c-9-3.29-15.45-9.86-21.68-16.62-16.75-18.19-29.22-38.93-34-63.4-8.15-41.66-1.51-80.17,25.47-114.3,7.77-9.85,16-18.91,26.25-26.11a19.47,19.47,0,0,0,6.12-6.13,66.32,66.32,0,0,1,17.87-6.53c.06,2.55-2,3.12-3.1,4.27-22.38,22.51-34.2,49.73-35.7,81.32-1.65,34.91,9.56,65.32,33,91.2a90.8,90.8,0,0,0,7.37,7.18c4.86,4.26,4.91,4.21.95,9.62C374.94,441.11,367.12,454.12,362.1,468.71Z" transform="translate(-40.31 -51.01)"/><path class="cls-68" d="M496,516.62c-.63-1.59-1-2.79,1.43-3.4,4.83-1.23,9.6-2.77,14.35-4.31,21.06-6.87,36.73-19.72,43-41.53,4.38-15.33,1.69-30.34-6.28-44.19-8.75-15.22-21.36-26.49-36.61-35,13.45.17,26.07,3.91,38.23,9.22,25.71,11.23,45.47,29.36,61.16,52.44,3.18,4.67,1,8.47.85,12.71a17.06,17.06,0,0,1-8.37,8.84c-10.1,5.43-11,20.68-1.11,26.25,5.24,3,6.71,6.79,7.73,11.69.42,2.05.76,4.11,1.1,6-.95,1.61-2.34,1.47-3.6,1.52-36.5,1.22-73-.27-109.5.14A12.68,12.68,0,0,1,496,516.62Z" transform="translate(-40.31 -51.01)"/><path class="cls-69" d="M507.21,387.89a14.76,14.76,0,0,1-10.31,3.17,38.85,38.85,0,0,0-12.47,1.68c-17.33,4.63-34.61,9.55-49.47,20.11-18.5,13.14-33.89,29.33-44.41,49.53-7.21,13.83-11.4,28.84-13.61,44.31-.41,2.84-.06,5.78-.06,9.17-3.41,1.33-7.42.1-11.23.7-1.55-.72-1.25-2.1-1.19-3.37a127.19,127.19,0,0,1,16.44-57.1c3.6-6.45,8.07-12.29,11.94-18.54,12.29-14.29,26.13-26.56,43-35.46,19.88-10.5,40.9-15,63.2-14.38a9.13,9.13,0,0,1,6.53,0Z" transform="translate(-40.31 -51.01)"/><path class="cls-70" d="M727.86,468.76c-17.14.08-34.28.19-51.42.24q-24.54.06-49.08,0c-2.3,0-5.66,1.3-5.84-3.06a8.8,8.8,0,0,1,1.21-.45,36.78,36.78,0,0,1,7.84-.55c2.54,0,4.69-.58,5.45-3.45,1.61-6.08,6.46-8.49,11.89-8.63,24.15-.65,48.32-1.5,72.46.4C725.05,457.35,729.76,461.47,727.86,468.76Z" transform="translate(-40.31 -51.01)"/><path class="cls-71" d="M721.58,454.69l-68.85,0a23.69,23.69,0,0,0-8.53,1.15c-6.6,2.42-7.1,3.32-4.22,10.77-6,.54-11.68,2.47-17.25-1.12,3.56-11.59,12.71-18.77,24.25-18.77,27.21,0,54.41.17,81.61.05a26.46,26.46,0,0,1,12,3.14c1.18.45,2.42.82,3,2.09a1.71,1.71,0,0,0,.22,1.11C739.44,458.09,730.16,458.76,721.58,454.69Z" transform="translate(-40.31 -51.01)"/><path class="cls-72" d="M497.58,375.34c-3.53-.65-7.43,1.42-10.24-2.48-3.61-5-3.23-11.65,1.26-15.65a12.48,12.48,0,0,1,17.11,0c4.78,4.56,5.34,11.6,1.35,16.33C504.32,376.78,500.65,374.6,497.58,375.34Z" transform="translate(-40.31 -51.01)"/><path class="cls-73" d="M721.58,454.69c5.49,0,11,0,16.48-.09,2,0,4.25.49,5.78-1.53,5.1,2.79,6.2,8.36,8.91,12.81.43,3.15-1.65,3.24-3.88,3.21q-10.5-.18-21-.33C727.49,463.3,722.56,459.88,721.58,454.69Z" transform="translate(-40.31 -51.01)"/><path class="cls-65" d="M505.56,387.73a16,16,0,0,1-6.53,0A7.29,7.29,0,0,1,505.56,387.73Z" transform="translate(-40.31 -51.01)"/><path class="cls-49" d="M743.62,452a5.25,5.25,0,0,1-3-2.09C743.15,448.35,743.12,450.54,743.62,452Z" transform="translate(-40.31 -51.01)"/><path class="cls-74" d="M324,663.16c-8.51,1-16.12.61-23.7.69-3.08,0-3.48-1.91-2.8-4.25,3.9-13.53,7.87-27,12.33-42.32C316.21,633,319.07,647.83,324,663.16Z" transform="translate(-40.31 -51.01)"/><path class="cls-75" d="M786.21,663.5c-7.94,1-15.29.33-22.61.31-4.22,0-4.9-1.09-3.65-5.48,2.36-8.32,5-16.58,7.41-24.88a138.94,138.94,0,0,1,4.87-14.75C778.28,633.23,782.36,648.14,786.21,663.5Z" transform="translate(-40.31 -51.01)"/><path class="cls-76" d="M330.52,752.12c.08-5.23.37-5.52,5.26-5.34,4.54.16,7.24,2.17,7.21,5.36,0,3.43-3.76,5.73-8.79,5.81S330.89,754.46,330.52,752.12Z" transform="translate(-40.31 -51.01)"/><path class="cls-77" d="M484.77,802.41c.08-4.88.44-5.23,5.4-5.15s7.42,1.83,7.28,5.06c-.15,3.52-3.67,5.72-8.79,5.94C483.85,808.46,485,805.08,484.77,802.41Z" transform="translate(-40.31 -51.01)"/><path class="cls-78" d="M301.18,746.63c5.43.29,9.23,4.87,9,10.85-.22,5.67-4.94,10.08-10.3,9.63-5.53-.48-9.24-5-9-11A9.56,9.56,0,0,1,301.18,746.63Z" transform="translate(-40.31 -51.01)"/><path class="cls-79" d="M384.8,799.46l4.3,10.41c-3,1.21-5.69.94-8.67.18C381.05,806.55,382.4,803.67,384.8,799.46Z" transform="translate(-40.31 -51.01)"/><path class="cls-80" d="M541.62,810.12c-3.52.55-6.08.92-8.74-.45a23.11,23.11,0,0,1,4.28-9.41C540,803.24,540.25,806.67,541.62,810.12Z" transform="translate(-40.31 -51.01)"/><path class="cls-81" d="M644.58,799.29c2.81,3.42,3.62,6.92,4.53,10.47a11,11,0,0,1-8.19.06C640.94,806.06,643,803.11,644.58,799.29Z" transform="translate(-40.31 -51.01)"/><path class="cls-82" d="M664.8,749.54c2.55,1.33,2.69,3.9,3.61,5.94.68,1.51,2.49,3.37.55,4.84s-4.52,1-6.71.34c-1.5-.46-1.35-2-.83-3.3C662.49,754.74,663.65,752.16,664.8,749.54Z" transform="translate(-40.31 -51.01)"/><path class="cls-25" d="M481.83,608.22c1.91,2.56,1.3,5.56,1.31,8.39q.14,22.08.05,44.17c0,10.62,1.54,20.88,6.16,30.55-2.39,1.1-4.56,2.72-7.27,3-4.77.56-7.65-1.69-6.56-6.26,1.43-6,1.21-12,1.43-18.07,0-1.27.11-3.15.9-3.7,4.86-3.36,3.74-8.29,3.77-12.91Q481.77,630.82,481.83,608.22Z" transform="translate(-40.31 -51.01)"/><path class="cls-25" d="M466.19,703.88c-2.75-28-1.75-56-1.81-84,0-3.38-.63-6.91,1.18-10.11.08,19.83.1,39.66.3,59.49,0,2.68-1.73,6.38,3.53,7.09,1.66.23,2.76,3.93,2.25,5.45-1.44,4.32,1.24,9.5-3.13,13.22C465.91,697.24,468.72,701.35,466.19,703.88Z" transform="translate(-40.31 -51.01)"/><path class="cls-25" d="M592.88,594.44c-6.64,2.95-5.2,8.82-5.13,14.19-2.72-3.64-.88-8.08-2.08-12.1C584.72,593.33,587.66,592.47,592.88,594.44Z" transform="translate(-40.31 -51.01)"/><path class="cls-25" d="M635.7,592.5H610.37A50.89,50.89,0,0,1,635.7,592.5Z" transform="translate(-40.31 -51.01)"/><path class="cls-25" d="M445.16,710.59h12.6A13.19,13.19,0,0,1,445.16,710.59Z" transform="translate(-40.31 -51.01)"/><path class="cls-83" d="M619.21,544.41c-2.11,1.13-4.49.55-6.76.55q-128.91,0-257.82,0a35,35,0,0,1-4,0c-4.71-.51-7.89-4-7.8-8.36.08-4.06,3-7,7.8-7.19,6.87-.25,13.75-.19,20.63-.19l236.4,0c6.68,0,6.68,0,8.8,6.17.52,1.5,1.17,3,1.59,4.47S620,542.48,619.21,544.41Z" transform="translate(-40.31 -51.01)"/><path class="cls-84" d="M631.26,500.61c5.78-.11,11.57-.13,17.34-.37,3-.12,4.91.74,6.08,3.72,4.07,10.32,11.72,14.88,22.86,14.23a154.63,154.63,0,0,1,19.73.08c11.12.76,18.76-3.89,23.3-13.86,1.17-2.56,2.24-4.84,5.69-3.75,3.52,2.83,3.8,6.6,3.11,10.67a90.53,90.53,0,0,1-6.9,22.4c-3,6.72-7.25,11.39-15.22,11.16q-31.72.18-63.46.34c-2.33,0-4.82.51-6.73-1.47,1.15-1.46,3.62-1.61,1.5-5.08-6.13-10-6.83-21.86-9-33.14A4.73,4.73,0,0,1,631.26,500.61Z" transform="translate(-40.31 -51.01)"/><path class="cls-85" d="M687.62,480.1q33.75,0,67.48,0c2.65,0,5.3,0,7.94.12s4.45,1.74,4.53,4.51c.09,3-2,4.18-4.56,4.5a49.52,49.52,0,0,1-6.34.19c-12.17,0-24.34.08-36.51-.17-4.24-.09-6.91.87-8.25,5.33-4.61,15.42-7.47,12.12-18.16,12.3-5.82.1-11.65-.14-17.46.16s-9.57-2.16-11.68-7.47c-4.74-11.87-3.2-10.29-16.14-10.32-10.85,0-21.7.11-32.55.08-5.93,0-8.73-1.52-8.9-4.5-.19-3.38,2.82-4.91,9.15-4.9q35.73,0,71.45,0Z" transform="translate(-40.31 -51.01)"/><path class="cls-86" d="M707.25,544.89c6.89-1.18,10.62-5.69,13.35-11.8,3.34-7.48,5.23-15.3,7-23.2.75-3.28-.84-6.16-1.38-9.23h28.12c-2.43,10.88-4.34,21.15-7.08,31.2-2.52,9.25-8.32,13.27-18,13.35C722,545.28,714.61,545,707.25,544.89Z" transform="translate(-40.31 -51.01)"/><path class="cls-87" d="M631.26,500.61c-.84,4.54.79,8.86,1.84,13,2.49,9.94,3,20.6,10,28.83-2.42,1.68-4.35.82-6.09,1.28-5.34-1.62-7.72-5.81-9.39-10.69-3.56-10.39-4.67-21.31-7.55-32.1A19.94,19.94,0,0,1,631.26,500.61Z" transform="translate(-40.31 -51.01)"/><path class="cls-88" d="M615.06,628.5c0-5.29,0-10.58,0-15.88s1.1-6.46,6.41-6.47c14.82,0,23,8.24,22.32,22.55-.79,16.36-14.38,21.81-25.37,21.36-3-.12-3.39-1.74-3.37-4.1C615.1,640.14,615.06,634.32,615.06,628.5Z" transform="translate(-40.31 -51.01)"/><path class="cls-89" d="M594.52,748.58c1.88,4.66,3,7.56,4.16,10.35-.73,2.84-3,2-4.59,2-4.29,0-4.75-.72-3.25-4.54C591.67,754.26,592.79,752.23,594.52,748.58Z" transform="translate(-40.31 -51.01)"/><path class="cls-90" d="M602.1,807.06a9.25,9.25,0,0,1,0-1.58c.47-2.67-1.43-6,1.57-7.93,2.19-1.43,9.7.41,11.91,2.49,3.29,3.11,3.72,9.31.9,13.05-2.31,3.09-9.91,5.21-13,3.64a2.64,2.64,0,0,1-1.39-2.56c0-2.37,0-4.74,0-7.11Z" transform="translate(-40.31 -51.01)"/><path class="cls-91" d="M364,756.51v-2.35c0-7.16,2.6-9,9.47-6.91,4.14,1.27,6.56,4.79,6.59,9.56,0,5.13-1.94,7.9-6.62,9.29a22.38,22.38,0,0,1-2.3.49c-6.42,1.16-7.07.6-7.15-6.16,0-1.3,0-2.61,0-3.92Z" transform="translate(-40.31 -51.01)"/><path class="cls-92" d="M430.78,752.61c0-5.67.06-5.81,4.64-5.81,5,0,7.93,2.13,7.85,5.65s-3.14,5.43-8.18,5.48C430.9,758,430.82,757.87,430.78,752.61Z" transform="translate(-40.31 -51.01)"/><path class="cls-93" d="M526.83,749.18c2.16,2.25,2.32,5,3.41,7.42.63,1.36,1.39,3.26-.67,4a6.8,6.8,0,0,1-6.1-.28c-1.29-.83-.79-2.47-.27-3.6C524.29,754.37,524.49,751.58,526.83,749.18Z" transform="translate(-40.31 -51.01)"/><path class="cls-94" d="M451.43,427c.47,3.3-2.15,4.64-4.62,6.32a98.65,98.65,0,0,0-35,41.85c-2.05,4.54-3.23,9.48-5.07,14.12-1.76,4.42-5.27,6-8.69,4.38-3.2-1.56-4.47-4.53-3-8.73,3.37-9.7,7.17-19.22,12.43-28.12,7.24-12.25,17.83-21.48,28-31.09,2.73-2.58,6.09-5,10.6-4.5C449.57,421.63,451.41,423.11,451.43,427Z" transform="translate(-40.31 -51.01)"/><path class="cls-95" d="M309.29,469.4c5.16-2.53,8.53-6,10.28-12,3.46,5.27,4.95,10.43,11.38,11.22-6.17,2.76-7.94,8.22-11.6,13.36C317.11,476.25,314.92,471.5,309.29,469.4Z" transform="translate(-40.31 -51.01)"/><path class="cls-96" d="M297.39,423.5c.23,2.91-1.46,4.34-4.69,4.31-2.57,0-4.7-.48-4.94-3.7-.25-3.51,1.51-5.81,4.69-5.9C295.45,418.13,297.19,419.84,297.39,423.5Z" transform="translate(-40.31 -51.01)"/><path class="cls-97" d="M290.61,347c-.84,1.81-.87,4.15-3.19,4.24-2.66.11-3.48-2.24-3.75-4.21-.29-2.17,1.48-3.29,3.49-3.34C289.36,343.65,290.25,345.22,290.61,347Z" transform="translate(-40.31 -51.01)"/><path class="cls-98" d="M344.81,408.55c3,0,5.21,2.34,5.15,5.6a5.71,5.71,0,0,1-5.5,5.42c-2.47-.11-5.64-3.36-5.55-5.7S342.19,408.59,344.81,408.55Z" transform="translate(-40.31 -51.01)"/><path class="cls-99" d="M329.11,362.63c0,2.62-1.43,4.55-4.6,4.71a4.81,4.81,0,0,1-4.87-5c.24-2.6,1.62-4.39,4.35-4.73S329,359.24,329.11,362.63Z" transform="translate(-40.31 -51.01)"/><path class="cls-100" d="M687.28,497.59c-3.69,0-7.38,0-11.07,0a6.71,6.71,0,0,1-5.56-2.44c-2.28-2.68-1.57-5.65,1.75-6.88a9.47,9.47,0,0,1,3.1-.46c7.91,0,15.81,0,23.72,0,2.75,0,5.45.47,6.12,3.75.51,2.5-2.64,5.61-6.2,5.86-3.94.26-7.91.06-11.86.06Z" transform="translate(-40.31 -51.01)"/></svg>